<svg fill="currentColor" viewBox="-0.709 -27.689 141.732 141.732" xml:space="preserve" xmlns="http://www.w3.org/2000/svg"><path d="m90.854 43.183 39.834 34.146-3.627 3.627-40.137-34.404-16.747 14.355-16.551-14.188-39.933 34.232-3.807-3.807L49.5 43.182 9.68 9.044l3.627-3.627 56.676 48.587L82.8 43.016l-.035-.032h.073l43.829-37.575 3.811 3.811-39.624 33.963zm49.46 37.777V5.411c0-2.988-2.416-5.411-5.396-5.411-.021 0-.041.003-.062.004-.021-.001-.042-.004-.063-.004-.333 0-.655.035-.975.098v-.08H11.158V.01H5.564C5.508.007 5.453 0 5.396 0c-.02 0-.041.003-.062.004C5.312.003 5.293 0 5.271 0 2.359 0 0 2.366 0 5.284c0 .021.003.042.003.063 0 .021-.003.043-.003.064V80.96c0 2.979 2.416 5.396 5.396 5.396h129.521c2.981-.001 5.397-2.417 5.397-5.396"/></svg>