<?xml version="1.0" encoding="utf-8"?>
<!-- Generator: Adobe Illustrator 26.5.0, SVG Export Plug-In . SVG Version: 6.00 Build 0)  -->
<svg version="1.1" id="Layer_1" xmlns="http://www.w3.org/2000/svg" xmlns:xlink="http://www.w3.org/1999/xlink" x="0px" y="0px"
	 viewBox="0 0 1024 1024" style="enable-background:new 0 0 1024 1024;" xml:space="preserve">
<style type="text/css">
	.st0{fill:#F1F1F1;}
	.st1{fill:url(#SVGID_1_);}
</style>
<g>
	<g>
		<g>
			<g>
				<path class="st0" d="M931.14,417.15L549.89,108.86c-36.6-29.57-85.82-35.49-128.37-15.25c-42.55,20.13-69.03,61.85-69.03,108.75
					v208.16c30.87,10.58,54.75,36.21,62.57,68.18V202.35c0-23.04,12.51-42.65,33.37-52.51c8.24-3.94,16.89-5.91,25.44-5.91
					c13.04,0,25.76,4.46,36.6,13.28L891.72,465.4c13.77,11.1,21.59,27.6,21.59,45.24c0,17.54-7.82,34.04-21.59,45.14L510.47,864.08
					c-17.94,14.53-41.19,17.23-62.05,7.37c-20.86-9.86-33.37-29.57-33.37-52.51V524.86c-7.92,31.96-31.7,57.59-62.57,68.18v225.9
					c0,46.9,26.49,88.51,69.03,108.75c16.79,7.89,34.62,11.83,52.24,11.83c27.22,0,53.91-9.24,76.13-27.19l381.25-308.19
					c28.47-23.04,44.74-57.07,44.74-93.49C975.87,474.22,959.6,440.08,931.14,417.15z"/>
			</g>
		</g>
	</g>
	<linearGradient id="SVGID_1_" gradientUnits="userSpaceOnUse" x1="42.8709" y1="510.6347" x2="912.3476" y2="510.6347">
		<stop  offset="0" style="stop-color:#1DFFFF"/>
		<stop  offset="0.4572" style="stop-color:#221FC9"/>
		<stop  offset="1" style="stop-color:#6954F3"/>
	</linearGradient>
	<path class="st1" d="M201.34,133.04l381.29,308.27c44.21,35.75,44.21,102.91,0,138.65L201.34,888.23
		c-58.66,47.43-146.38,5.89-146.38-69.33V202.36C54.97,127.15,142.68,85.61,201.34,133.04z"/>
</g>
</svg>
