<?xml version="1.0" encoding="utf-8"?>
<!-- Generator: Adobe Illustrator 26.5.0, SVG Export Plug-In . SVG Version: 6.00 Build 0)  -->
<svg version="1.1" id="Layer_1" xmlns="http://www.w3.org/2000/svg" xmlns:xlink="http://www.w3.org/1999/xlink" x="0px" y="0px"
	 viewBox="0 0 800 150" style="enable-background:new 0 0 800 150;" xml:space="preserve">
<style type="text/css">
	.st0{fill:#020237;}
	.st1{fill:url(#SVGID_1_);}
</style>
<g>
	<g>
		<g>
			<g>
				<path class="st0" d="M206.9,110.49l33.88-68.98h7.49l33.59,69.03h-11.03l-7.07-14.8h-30.96l4.57-9.42h21.82l-14.8-29.4
					l-26.2,53.57H206.9z"/>
				<path class="st0" d="M333.92,61.06l-23.94,49.19h-6.08l-24.17-49.19h10.79l16.54,33.78l16.63-33.78H333.92z"/>
				<path class="st0" d="M344.52,70.91v-9.85h34.58c9.86,0,14.83,4.84,14.89,14.51v34.96h-40.76c-9.11,0-13.66-4.11-13.66-12.34
					v-6.83c0-8.36,4.21-12.55,12.63-12.58h26.15v9.89h-21.77c-4.74,0-7.13,1.93-7.16,5.8h0.05c0,4.12,2.2,6.17,6.6,6.17h28.03
					l-0.05-21.91c0-5.21-2.21-7.82-6.64-7.82H344.52z"/>
				<path class="st0" d="M418.88,110.53h-9.89V61.01h39.58c9.93,0.06,14.89,5.03,14.89,14.89l0.05,34.58h-9.99V77.36
					c-0.09-4.21-2.29-6.36-6.6-6.46h-28.03V110.53z"/>
				<path class="st0" d="M529.37,70.95l-38.21,29.73h38.35v9.85h-54.56v-9.89l38.31-29.68h-38.31v-9.89h54.42V70.95z"/>
				<path class="st0" d="M545.91,70.91v-9.85h34.58c9.86,0,14.83,4.84,14.89,14.51v34.96h-40.76c-9.11,0-13.66-4.11-13.66-12.34
					v-6.83c0-8.36,4.21-12.55,12.63-12.58h26.15v9.89h-21.77c-4.74,0-7.13,1.93-7.16,5.8h0.05c0,4.12,2.2,6.17,6.6,6.17h28.04
					l-0.05-21.91c0-5.21-2.21-7.82-6.64-7.82H545.91z"/>
				<path class="st0" d="M663.37,41.36v9.8h-24.31v59.42h-9.8V51.17h-24.78l0.05-9.8H663.37z"/>
				<path class="st0" d="M716.61,100.64v9.89H679.2c-9.8-0.09-14.75-4.95-14.84-14.56V75.9c0-9.86,4.95-14.81,14.84-14.84h24.78
					c9.8,0.06,14.75,4.18,14.84,12.34v15.45h-39.15V78.78h29.21l0.05-4.1c-0.03-2.48-1.68-3.72-4.95-3.72h-22.19
					c-5.03,0-7.54,2.36-7.54,7.07v15.31c0,4.9,2.23,7.33,6.69,7.3H716.61z"/>
				<path class="st0" d="M779.75,100.59v9.94h-34.54c-9.86-0.06-14.81-5.14-14.84-15.22V75.57c0.06-9.64,4.99-14.48,14.8-14.51
					h34.58v9.56h-32.98c-4.3,0-6.47,2.36-6.5,7.07v15.36c0,4.99,2.86,7.51,8.58,7.54H779.75z"/>
			</g>
		</g>
		<g>
			<g>
				<path class="st0" d="M161.76,60.67L99.97,10.45c-5.93-4.82-13.91-5.78-20.81-2.48c-6.9,3.28-11.19,10.07-11.19,17.71v33.9
					c5,1.72,8.87,5.9,10.14,11.1V25.68c0-3.75,2.03-6.95,5.41-8.55c1.34-0.64,2.74-0.96,4.12-0.96c2.11,0,4.17,0.73,5.93,2.16
					l61.79,50.2c2.23,1.81,3.5,4.5,3.5,7.37c0,2.86-1.27,5.54-3.5,7.35l-61.79,50.21c-2.91,2.37-6.68,2.81-10.06,1.2
					s-5.41-4.82-5.41-8.55v-47.9c-1.28,5.21-5.14,9.38-10.14,11.1v36.79c0,7.64,4.29,14.42,11.19,17.71
					c2.72,1.28,5.61,1.93,8.47,1.93c4.41,0,8.74-1.5,12.34-4.43l61.79-50.2c4.61-3.75,7.25-9.3,7.25-15.23
					C169.01,69.96,166.37,64.4,161.76,60.67z"/>
			</g>
		</g>
	</g>
	<linearGradient id="SVGID_1_" gradientUnits="userSpaceOnUse" x1="17.7907" y1="75.8946" x2="158.714" y2="75.8946">
		<stop  offset="0" style="stop-color:#1DFFFF"/>
		<stop  offset="0.4572" style="stop-color:#221FC9"/>
		<stop  offset="1" style="stop-color:#6954F3"/>
	</linearGradient>
	<path class="st1" d="M43.48,14.39l61.8,50.21c7.17,5.82,7.17,16.76,0,22.58l-61.8,50.21c-9.51,7.73-23.72,0.96-23.72-11.29V25.68
		C19.75,13.43,33.97,6.67,43.48,14.39z"/>
</g>
</svg>
