<?xml version="1.0" encoding="utf-8"?>
<!-- Generator: Adobe Illustrator 26.5.0, SVG Export Plug-In . SVG Version: 6.00 Build 0)  -->
<svg version="1.1" id="Layer_1" xmlns="http://www.w3.org/2000/svg" xmlns:xlink="http://www.w3.org/1999/xlink" x="0px" y="0px"
	 viewBox="0 0 1024 1024" style="enable-background:new 0 0 1024 1024;" xml:space="preserve">
<style type="text/css">
	.st0{fill:#020237;}
	.st1{fill:url(#SVGID_1_);}
</style>
<g>
	<g>
		<path class="st0" d="M915.88,417.63L531.37,105.16C494.45,75.18,444.81,69.19,401.9,89.7c-42.91,20.4-69.62,62.68-69.62,110.22
			v210.98c31.13,10.73,55.22,36.71,63.1,69.1V199.92c0-23.35,12.62-43.23,33.66-53.22c8.31-4,17.04-5.99,25.66-5.99
			c13.15,0,25.98,4.52,36.92,13.46l384.51,312.36c13.88,11.25,21.77,27.98,21.77,45.86c0,17.77-7.89,34.5-21.77,45.75L491.61,870.6
			c-18.09,14.72-41.54,17.46-62.58,7.47c-21.03-9.99-33.66-29.97-33.66-53.22V526.79c-7.99,32.39-31.97,58.37-63.1,69.1v228.96
			c0,47.54,26.71,89.71,69.62,110.22c16.93,7.99,34.92,11.99,52.69,11.99c27.45,0,54.37-9.36,76.78-27.56l384.51-312.36
			C944.59,583.8,961,549.3,961,512.39C961,475.47,944.59,440.87,915.88,417.63z"/>
	</g>
</g>
<linearGradient id="SVGID_1_" gradientUnits="userSpaceOnUse" x1="52.1226" y1="514.3494" x2="929.0337" y2="514.3494">
	<stop  offset="0" style="stop-color:#1DFFFF"/>
	<stop  offset="0.4572" style="stop-color:#221FC9"/>
	<stop  offset="1" style="stop-color:#6954F3"/>
</linearGradient>
<path class="st1" d="M211.95,131.64L596.5,444.08c44.59,36.23,44.59,104.3,0,140.53L211.95,897.06
	c-59.17,48.07-147.63,5.97-147.63-70.27V201.9C64.32,125.67,152.78,83.57,211.95,131.64z"/>
</svg>
