<?xml version="1.0" encoding="UTF-8"?>
<svg id="Design" xmlns="http://www.w3.org/2000/svg" xmlns:xlink="http://www.w3.org/1999/xlink" viewBox="0 0 498.21 380.8">
  <defs>
    <style>
      .cls-1 {
        fill: #3a4bf8;
      }

      .cls-2 {
        fill: #437bfa;
      }

      .cls-3 {
        fill: #4172fa;
      }

      .cls-4 {
        fill: #3f67f9;
      }

      .cls-5 {
        fill: #3f68f9;
      }

      .cls-6 {
        fill: #4588fb;
      }

      .cls-7 {
        fill: #4badfd;
      }

      .cls-8 {
        fill: #499ffc;
      }

      .cls-9 {
        fill: url(#linear-gradient-2);
        opacity: .2;
      }

      .cls-10 {
        fill: url(#linear-gradient-17);
      }

      .cls-11 {
        fill: #4797fc;
      }

      .cls-12 {
        fill: #437efa;
      }

      .cls-13 {
        fill: #3d5df9;
      }

      .cls-14 {
        fill: #3948f7;
      }

      .cls-15 {
        fill: #51cefe;
      }

      .cls-16 {
        fill: #3b51f8;
      }

      .cls-17 {
        fill: #3c58f8;
      }

      .cls-18 {
        fill: #4796fc;
      }

      .cls-19 {
        fill: #4caffd;
      }

      .cls-20 {
        fill: #51ccfe;
      }

      .cls-21 {
        fill: #3947f7;
      }

      .cls-22 {
        fill: #4db7fd;
      }

      .cls-23 {
        fill: #3c59f8;
      }

      .cls-24 {
        fill: #468dfb;
      }

      .cls-25 {
        fill: url(#linear-gradient-15);
      }

      .cls-26 {
        fill: #4171fa;
      }

      .cls-27 {
        fill: #4aa6fc;
      }

      .cls-28 {
        fill: #53d8ff;
      }

      .cls-29 {
        fill: #4fbffe;
      }

      .cls-30 {
        fill: #427afa;
      }

      .cls-31 {
        fill: url(#linear-gradient-18);
      }

      .cls-32 {
        fill: #4db4fd;
      }

      .cls-33 {
        fill: #4899fc;
      }

      .cls-34 {
        fill: #3c57f8;
      }

      .cls-35 {
        fill: url(#linear-gradient-14);
      }

      .cls-36 {
        fill: #4baafd;
      }

      .cls-37 {
        fill: url(#linear-gradient-20);
      }

      .cls-38 {
        fill: url(#linear-gradient-6);
      }

      .cls-39 {
        fill: #4279fa;
      }

      .cls-40 {
        clip-path: url(#clippath-2);
      }

      .cls-41 {
        fill: #49a1fc;
      }

      .cls-42 {
        fill: #4aa3fc;
      }

      .cls-43 {
        fill: #4277fa;
      }

      .cls-44 {
        fill: #3f65f9;
      }

      .cls-45 {
        fill: #4cb2fd;
      }

      .cls-46 {
        fill: #49a0fc;
      }

      .cls-47 {
        fill: #3f69f9;
      }

      .cls-48 {
        fill: #458afb;
      }

      .cls-49 {
        fill: #489cfc;
      }

      .cls-50 {
        fill: #3e63f9;
      }

      .cls-51 {
        fill: #4ba9fd;
      }

      .cls-52 {
        fill: #4db8fd;
      }

      .cls-53 {
        fill: #52d0ff;
      }

      .cls-54 {
        fill: #3e5ff9;
      }

      .cls-55 {
        fill: #3945f7;
      }

      .cls-56 {
        fill: #3842f7;
      }

      .cls-57 {
        fill: #4690fb;
      }

      .cls-58 {
        fill: #406bf9;
      }

      .cls-59 {
        fill: #406af9;
      }

      .cls-60 {
        fill: url(#linear-gradient-11);
      }

      .cls-61 {
        fill: #437dfa;
      }

      .cls-62 {
        fill: #4691fb;
      }

      .cls-63 {
        fill: #4175fa;
      }

      .cls-64 {
        fill: #4fc1fe;
      }

      .cls-65 {
        fill: #4cb3fd;
      }

      .cls-66 {
        fill: #4794fb;
      }

      .cls-67 {
        clip-path: url(#clippath-1);
      }

      .cls-68 {
        fill: url(#linear-gradient-10);
      }

      .cls-69 {
        fill: #4aa8fc;
      }

      .cls-70 {
        fill: #3b4ef8;
      }

      .cls-71 {
        fill: #53d7ff;
      }

      .cls-72 {
        fill: #3e64f9;
      }

      .cls-73 {
        fill: #489bfc;
      }

      .cls-74 {
        fill: #458bfb;
      }

      .cls-75 {
        fill: #4692fb;
      }

      .cls-76 {
        fill: #3e61f9;
      }

      .cls-77 {
        fill: #4fc4fe;
      }

      .cls-78 {
        fill: #52d1ff;
      }

      .cls-79 {
        fill: #468ffb;
      }

      .cls-80 {
        fill: url(#linear-gradient-16);
      }

      .cls-81 {
        fill: #52d3ff;
      }

      .cls-82 {
        fill: #4bacfd;
      }

      .cls-83 {
        fill: #50cafe;
      }

      .cls-84 {
        fill: #4173fa;
      }

      .cls-85 {
        fill: #50c5fe;
      }

      .cls-86 {
        fill: #4ebbfd;
      }

      .cls-87 {
        fill: #51cdfe;
      }

      .cls-88 {
        fill: #4482fa;
      }

      .cls-89 {
        fill: #406ff9;
      }

      .cls-90 {
        fill: #3f66f9;
      }

      .cls-91 {
        fill: #3c54f8;
      }

      .cls-92 {
        fill: #3840f7;
      }

      .cls-93 {
        fill: #3a4cf8;
      }

      .cls-94 {
        fill: #50c6fe;
      }

      .cls-95 {
        fill: #4ebafd;
      }

      .cls-96 {
        fill: url(#linear-gradient-21);
      }

      .cls-97 {
        fill: #3e62f9;
      }

      .cls-98 {
        fill: #4baefd;
      }

      .cls-99 {
        fill: #437ffa;
      }

      .cls-100 {
        fill: url(#linear-gradient-25);
      }

      .cls-101 {
        fill: #3c55f8;
      }

      .cls-102 {
        fill: #4276fa;
      }

      .cls-103 {
        fill: url(#linear-gradient-5);
      }

      .cls-104 {
        fill: #4aa4fc;
      }

      .cls-105 {
        fill: #4170fa;
      }

      .cls-106 {
        fill: #406cf9;
      }

      .cls-107 {
        fill: #4586fb;
      }

      .cls-108 {
        fill: #437cfa;
      }

      .cls-109 {
        fill: #4db5fd;
      }

      .cls-110 {
        fill: #499efc;
      }

      .cls-111 {
        fill: #3b53f8;
      }

      .cls-112 {
        clip-path: url(#clippath);
      }

      .cls-113 {
        fill: #4793fb;
      }

      .cls-114 {
        fill: #3d5ef9;
      }

      .cls-115 {
        fill: #52d2ff;
      }

      .cls-116 {
        fill: #4589fb;
      }

      .cls-117 {
        fill: none;
      }

      .cls-118 {
        fill: #3e60f9;
      }

      .cls-119 {
        fill: #3944f7;
      }

      .cls-120 {
        fill: #406ef9;
      }

      .cls-121 {
        fill: url(#linear-gradient-7);
      }

      .cls-122 {
        fill: #4795fb;
      }

      .cls-123 {
        fill: #4db9fd;
      }

      .cls-124 {
        fill: #4174fa;
      }

      .cls-125 {
        fill: #4db6fd;
      }

      .cls-126 {
        fill: #4fc2fe;
      }

      .cls-127 {
        fill: #4484fb;
      }

      .cls-128 {
        fill: #3b4ff8;
      }

      .cls-129 {
        fill: #53d6ff;
      }

      .cls-130 {
        fill: url(#linear-gradient-24);
      }

      .cls-131 {
        fill: #4fc3fe;
      }

      .cls-132 {
        fill: #3a49f7;
      }

      .cls-133 {
        fill: #3d5af8;
      }

      .cls-134 {
        fill: #3946f7;
      }

      .cls-135 {
        fill: #50c8fe;
      }

      .cls-136 {
        fill: #489dfc;
      }

      .cls-137 {
        fill: #3c56f8;
      }

      .cls-138 {
        fill: #4380fa;
      }

      .cls-139 {
        fill: #4cb1fd;
      }

      .cls-140 {
        fill: url(#linear-gradient-9);
      }

      .cls-141 {
        fill: #52d4ff;
      }

      .cls-142 {
        fill: url(#linear-gradient-22);
      }

      .cls-143 {
        fill: #468efb;
      }

      .cls-144 {
        fill: #4cb0fd;
      }

      .cls-145 {
        fill: #50c7fe;
      }

      .cls-146 {
        fill: url(#linear-gradient-3);
      }

      .cls-147 {
        fill: #3841f7;
      }

      .cls-148 {
        fill: #3d5bf8;
      }

      .cls-149 {
        fill: #4278fa;
      }

      .cls-150 {
        fill: #52d5ff;
      }

      .cls-151 {
        fill: #49a2fc;
      }

      .cls-152 {
        fill: url(#linear-gradient);
      }

      .cls-153 {
        fill: #4481fa;
      }

      .cls-154 {
        fill: #51cbfe;
      }

      .cls-155 {
        fill: #4aa5fc;
      }

      .cls-156 {
        fill: #3b52f8;
      }

      .cls-157 {
        fill: #4aa7fc;
      }

      .cls-158 {
        fill: #4898fc;
      }

      .cls-159 {
        fill: #4587fb;
      }

      .cls-160 {
        fill: #489afc;
      }

      .cls-161 {
        fill: #4485fb;
      }

      .cls-162 {
        fill: #3a4df8;
      }

      .cls-163 {
        fill: #3943f7;
      }

      .cls-164 {
        fill: #4483fb;
      }

      .cls-165 {
        fill: #3a4af8;
      }

      .cls-166 {
        fill: #3b50f8;
      }

      .cls-167 {
        fill: #406df9;
      }

      .cls-168 {
        fill: url(#linear-gradient-23);
      }

      .cls-169 {
        fill: url(#linear-gradient-19);
      }

      .cls-170 {
        fill: #4babfd;
      }

      .cls-171 {
        fill: url(#linear-gradient-4);
      }

      .cls-172 {
        fill: #4ebcfe;
      }

      .cls-173 {
        fill: #4ebefe;
      }

      .cls-174 {
        fill: #3d5cf8;
      }

      .cls-175 {
        fill: url(#linear-gradient-8);
      }

      .cls-176 {
        fill: #50c9fe;
      }

      .cls-177 {
        fill: #51cfff;
      }

      .cls-178 {
        fill: url(#linear-gradient-12);
      }

      .cls-179 {
        fill: url(#linear-gradient-13);
      }

      .cls-180 {
        fill: #4ebdfe;
      }

      .cls-181 {
        fill: #4fc0fe;
      }
    </style>
    <clipPath id="clippath">
      <rect class="cls-117" width="498.21" height="380.8"/>
    </clipPath>
    <clipPath id="clippath-1">
      <rect class="cls-117" width="462.36" height="451.88"/>
    </clipPath>
    <linearGradient id="linear-gradient" x1="111.45" y1="447.91" x2="134.04" y2="305.84" gradientTransform="translate(239.22 793.2) rotate(180)" gradientUnits="userSpaceOnUse">
      <stop offset="0" stop-color="#1c8ef4"/>
      <stop offset="1" stop-color="#00cfdd"/>
    </linearGradient>
    <linearGradient id="linear-gradient-2" x1="56.71" y1="568.67" x2="92.64" y2="428.96" gradientUnits="userSpaceOnUse">
      <stop offset="0" stop-color="#965cf2"/>
      <stop offset="1" stop-color="#ff8adc"/>
    </linearGradient>
    <linearGradient id="linear-gradient-3" x1="159.35" y1="357.46" x2="233.65" y2="357.46" gradientUnits="userSpaceOnUse">
      <stop offset="0" stop-color="#f9b776"/>
      <stop offset="1" stop-color="#f47960"/>
    </linearGradient>
    <linearGradient id="linear-gradient-4" x1="164.1" y1="362.53" x2="320.9" y2="362.53" xlink:href="#linear-gradient-3"/>
    <linearGradient id="linear-gradient-5" x1="20.8" y1="291.78" x2="279.56" y2="263.34" gradientUnits="userSpaceOnUse">
      <stop offset="0" stop-color="#a77ef7"/>
      <stop offset="1" stop-color="#5e65d6"/>
    </linearGradient>
    <linearGradient id="linear-gradient-6" x1="188.07" y1="33.77" x2="101.22" y2="118.73" gradientUnits="userSpaceOnUse">
      <stop offset="0" stop-color="#5a2d68"/>
      <stop offset="1" stop-color="#22043d"/>
    </linearGradient>
    <linearGradient id="linear-gradient-7" x1="99.56" y1="150.6" x2="167.87" y2="299.28" gradientUnits="userSpaceOnUse">
      <stop offset="0" stop-color="#d1e8ff"/>
      <stop offset="1" stop-color="#eaefff"/>
    </linearGradient>
    <linearGradient id="linear-gradient-8" x1="159.11" y1="149.53" x2="150.83" y2="96.43" xlink:href="#linear-gradient-3"/>
    <linearGradient id="linear-gradient-9" x1="147.01" y1="54.52" x2="221.43" y2="105.07" xlink:href="#linear-gradient-3"/>
    <linearGradient id="linear-gradient-10" x1="229.69" y1="-4.8" x2="140.64" y2="82.31" xlink:href="#linear-gradient-6"/>
    <linearGradient id="linear-gradient-11" x1="104.44" y1="30.3" x2="189.76" y2="88.25" xlink:href="#linear-gradient-3"/>
    <linearGradient id="linear-gradient-12" x1="136.08" y1="234.47" x2="283.37" y2="234.47" xlink:href="#linear-gradient-3"/>
    <linearGradient id="linear-gradient-13" x1="253.89" y1="222.85" x2="159.85" y2="248.63" gradientUnits="userSpaceOnUse">
      <stop offset="0" stop-color="#2b3582"/>
      <stop offset="1" stop-color="#150e42"/>
    </linearGradient>
    <linearGradient id="linear-gradient-14" x1="323.18" y1="138.27" x2="224.65" y2="242.41" gradientUnits="userSpaceOnUse">
      <stop offset="0" stop-color="#6d6afe"/>
      <stop offset="1" stop-color="#3fb0f7"/>
    </linearGradient>
    <linearGradient id="linear-gradient-15" x1="431.06" y1="478.75" x2="441.39" y2="722.27" gradientUnits="userSpaceOnUse">
      <stop offset="0" stop-color="#53d8ff"/>
      <stop offset="1" stop-color="#3840f7"/>
    </linearGradient>
    <linearGradient id="linear-gradient-16" x1="361.37" y1="471.44" x2="371.33" y2="706.5" xlink:href="#linear-gradient-15"/>
    <linearGradient id="linear-gradient-17" x1="400.42" y1="474.84" x2="410.55" y2="713.83" xlink:href="#linear-gradient-15"/>
    <linearGradient id="linear-gradient-18" x1="219.97" y1="478.75" x2="230.29" y2="722.27" xlink:href="#linear-gradient-15"/>
    <linearGradient id="linear-gradient-19" x1="150.26" y1="471.42" x2="160.21" y2="705.95" xlink:href="#linear-gradient-15"/>
    <linearGradient id="linear-gradient-20" x1="189.33" y1="474.84" x2="199.46" y2="713.83" xlink:href="#linear-gradient-15"/>
    <linearGradient id="linear-gradient-21" x1="288.66" y1="235.16" x2="254.07" y2="490.93" xlink:href="#linear-gradient-13"/>
    <linearGradient id="linear-gradient-22" x1="144.87" y1="90.88" x2="162.32" y2="79.05" xlink:href="#linear-gradient-15"/>
    <clipPath id="clippath-2">
      <path class="cls-117" d="M172.72,98.43c-.32,1.08-1.45,1.7-2.53,1.38l-4.32-1.27c-1.08-.32-1.7-1.45-1.38-2.53l.06-.21c.32-1.08,1.45-1.7,2.53-1.38l4.32,1.27c1.08,.32,1.7,1.45,1.38,2.53l-.06,.21Z"/>
    </clipPath>
    <linearGradient id="linear-gradient-23" x1="233.39" y1="25.6" x2="37.96" y2="57.89" xlink:href="#linear-gradient-15"/>
    <linearGradient id="linear-gradient-24" x1="193.66" y1="53.84" x2="63.39" y2="75.36" xlink:href="#linear-gradient-15"/>
    <linearGradient id="linear-gradient-25" x1="131.45" y1="61.18" x2="206.13" y2="59.93" xlink:href="#linear-gradient-15"/>
  </defs>
  <g class="cls-112">
    <g class="cls-67">
      <g>
        <g>
          <g>
            <rect class="cls-152" x="114.39" y="340.1" width="10.45" height="113.01" transform="translate(239.22 793.2) rotate(-180)"/>
            <rect class="cls-9" x="60.27" y="314.77" width="115.08" height="32.64" rx="11.24" ry="11.24"/>
          </g>
          <g>
            <path class="cls-146" d="M196.76,264.74s15.53,2.41,32.99,14.08c2.75,1.84,4.25,5.04,3.84,8.32-2.09,16.56-10.69,70.16-39.03,122.51-1.49,2.76-1.92,5.97-1.26,9.04l4.92,22.92,9.13,8.56h-23.52s-15.66-42.38-15.66-42.38l6.7-2.12c5.19-1.64,8.75-6.42,8.85-11.86l.79-45.46c-.67-20.26,12.42-34.23,12.42-34.23l-37.57-1.83,37.41-47.54Z"/>
            <path class="cls-171" d="M164.1,314.77c.2-.35,40.44-4.84,40.44-4.84,0,0-1.32,12.24,2.8,29.08,4.12,16.84,63.2,89.83,63.2,89.83l-6.2,19.64c19.16,6.67,38,7.74,56.54,3.4l-38.4-23.04s-35.93-122.46-57.95-144.3l-40.34-13.96-20.11,44.19Z"/>
            <path class="cls-103" d="M73.85,243.52s-23.19,34.49-25.09,50.22c-1.9,15.73,6.35,22.12,30.68,23.18,24.33,1.05,89.28,1.04,89.28,1.04l55.43-47.37s-40.4-14.41-50.9-18.49c-10.5-4.08-99.4-8.57-99.4-8.57Z"/>
          </g>
          <g>
            <path class="cls-38" d="M120.71,49.78c-2.48,2.7-16.13,5.62-14.5,13.75,.22,1.08-.8,1.99-1.86,1.7-5.44-1.46-17.46-3.31-24.91,6.03-6.58,8.24-1.66,16.02,2.35,20.29,.97,1.03,.15,2.71-1.25,2.53-10-1.26-31.74-1.57-35.3,18.8-3.32,18.99,9.9,24.35,17.74,25.86,1.33,.26,1.64,2,.5,2.72-3.91,2.48-8.44,7.61-6.61,17.73,2.87,15.86,33.96,14.56,37.59,14.35,.23-.01,.45-.08,.65-.19l49.8-28.4c.39-.22,.66-.6,.73-1.04l10.05-58.06c.08-.47-.07-.95-.4-1.29l-9.82-34.51c-.39-.41-8.8-17.6-24.76-.24Z"/>
            <path class="cls-121" d="M136.56,238.95s27-25.71,40.29-42.74c7.18-9.21,9.44-21.32,6.12-32.52-6.07-20.44-16.85-41.62-17.84-44.91-1.51-5.05-31.78-4.84-31.78-4.84,0,0-59.58,38.67-82.98,104.16l26.29,8.18s15.56-26.1,30.92-42.69c0,0-26.59,35.13-27.53,49.52l56.51,5.84Z"/>
            <path class="cls-175" d="M168.79,90.55c-.32,1.05-8.22,27.25-8.84,27.79-.62,.54-17.33,1.44-25.2-3.93l13.35-27.94,20.69,4.08Z"/>
            <g>
              <path class="cls-140" d="M191.86,49.68s6.18,14.2-1.01,35.82c-7.19,21.62-19,23.51-26.49,18.19-7.49-5.33-17.21-14.86-18.45-34.42-1.24-19.57,37.45-37.54,45.95-19.58Z"/>
              <path class="cls-68" d="M160.5,67.96s13-29.26,32.61-11.08l1.52,7.52s18.64-5.34,12.48-22.23c-6.16-16.89-24.35-25.11-44.27-14.12-19.92,10.98-30.79,20.69-29.69,36.07,1.1,15.38,12.62,10.1,12.62,10.1,0,0,2.2-11.31,7.61-13.33,5.41-2.02,5.31,6.54,5.31,6.54l1.81,.53Z"/>
              <path class="cls-60" d="M156.01,68.33s6.77-15-2.75-15.53-5.62,14.46-3.72,19.93l6.47-4.4Z"/>
            </g>
            <path class="cls-178" d="M191.56,240.86l-19.84-19.12-27.44,11.59s-27.32,4.23-42.95,0l-15.63-4.23-35.33-11-5.55,15.68c-1.41,3.98,0,8.4,3.45,10.85,3.06,2.17,6.64,4.56,8.92,5.56,4.65,2.04,114.7-1.41,114.7-1.41l19.68-7.92Z"/>
          </g>
          <g>
            <path class="cls-179" d="M116.49,249.88c.09,0,.18,0,.26,0l115.08-.13c2.84,0,5.15-2.31,5.15-5.16,0-2.85-2.32-5.2-5.16-5.15l-115.08,.13c-2.84,0-5.15,2.31-5.15,5.16,0,2.76,2.17,5,4.89,5.14Z"/>
            <path class="cls-35" d="M335.28,145.39h-95.84c-7.07,0-13.51,4.08-16.52,10.47l-44.31,93.95h119.1c4.56,0,8.65-2.78,10.32-7.02l34.36-86.94c1.99-5.02-1.72-10.47-7.12-10.47Z"/>
          </g>
          <g>
            <g>
              <path class="cls-25" d="M402.99,253.86c.44,1.83,42.71,160.35,53.42,200.54,1.24,4.63-2.21,9.18-6.95,9.18h0c-3.31,0-6.19-2.28-6.99-5.52l-46.92-190.23,7.43-13.97Z"/>
              <path class="cls-80" d="M379.84,253.4c-.44,1.84-42.71,160.7-53.42,200.98-1.23,4.64,2.21,9.2,6.95,9.2h0c3.31,0,6.19-2.28,6.99-5.54l46.92-190.65-7.43-14Z"/>
              <path class="cls-10" d="M378.08,248.68h26.32v21.14c0,3.04-2.43,5.5-5.44,5.5h-3.61s0,47.48,0,47.48c0,2.3-1.84,4.16-4.12,4.16h0c-2.27,0-4.12-1.86-4.12-4.16v-47.48s-1.83,0-1.83,0c-3.98,0-7.21-3.27-7.21-7.3v-19.34Z"/>
              <path class="cls-31" d="M191.89,253.86c.44,1.83,42.71,160.35,53.42,200.54,1.24,4.63-2.21,9.18-6.95,9.18h0c-3.31,0-6.19-2.28-6.99-5.52l-46.92-190.23,7.43-13.97Z"/>
              <path class="cls-169" d="M168.75,253.86c-.44,1.83-42.71,160.35-53.42,200.54-1.23,4.63,2.21,9.18,6.95,9.18h0c3.31,0,6.19-2.28,6.99-5.52l46.92-190.23-7.43-13.97Z"/>
              <path class="cls-37" d="M166.99,248.68h26.32v21.14c0,3.04-2.43,5.5-5.44,5.5h-3.61s0,47.48,0,47.48c0,2.3-1.84,4.16-4.12,4.16h0c-2.27,0-4.12-1.86-4.12-4.16v-47.48s-1.83,0-1.83,0c-3.98,0-7.21-3.27-7.21-7.3v-19.34Z"/>
            </g>
            <path class="cls-96" d="M471.07,243.6H100.94c-2.05,0-3.85,1.41-4.36,3.42l-2.05,8.05c-.74,2.9,1.43,5.72,4.39,5.7l373.96-.88c2.92-.02,5.06-2.8,4.34-5.67l-1.78-7.17c-.5-2.03-2.3-3.45-4.37-3.45Z"/>
          </g>
        </g>
        <g>
          <g>
            <path class="cls-142" d="M166.61,97.26c-17.51-7.02-18.74-29.3-18.75-29.53l1.44-.07c.01,.21,1.21,21.58,17.85,28.26l-.54,1.33Z"/>
            <g class="cls-40">
              <polygon class="cls-28" points="164.42 96.26 164.16 98.02 163.92 97.95 164.42 96.26"/>
              <polygon class="cls-28" points="165.36 93.91 164.21 98.04 164.16 98.02 164.42 96.26 165.13 93.84 165.36 93.91"/>
              <polygon class="cls-71" points="165.41 93.92 164.26 98.05 164.21 98.04 165.36 93.91 165.41 93.92"/>
              <polygon class="cls-129" points="165.46 93.94 164.32 98.07 164.26 98.05 165.41 93.92 165.46 93.94"/>
              <polygon class="cls-150" points="165.51 93.95 164.37 98.09 164.32 98.07 165.46 93.94 165.51 93.95"/>
              <polygon class="cls-141" points="165.56 93.97 164.42 98.1 164.37 98.09 165.51 93.95 165.56 93.97"/>
              <polygon class="cls-81" points="165.61 93.98 164.47 98.12 164.42 98.1 165.56 93.97 165.61 93.98"/>
              <polygon class="cls-115" points="165.67 94 164.52 98.13 164.47 98.12 165.61 93.98 165.67 94"/>
              <polygon class="cls-78" points="165.72 94.01 164.57 98.15 164.52 98.13 165.67 94 165.72 94.01"/>
              <polygon class="cls-53" points="165.77 94.03 164.62 98.16 164.57 98.15 165.72 94.01 165.77 94.03"/>
              <polygon class="cls-177" points="165.82 94.04 164.68 98.18 164.62 98.16 165.77 94.03 165.82 94.04"/>
              <polygon class="cls-15" points="165.87 94.06 164.73 98.19 164.68 98.18 165.82 94.04 165.87 94.06"/>
              <polygon class="cls-87" points="165.92 94.07 164.78 98.21 164.73 98.19 165.87 94.06 165.92 94.07"/>
              <polygon class="cls-20" points="165.97 94.09 164.83 98.22 164.78 98.21 165.92 94.07 165.97 94.09"/>
              <polygon class="cls-154" points="166.03 94.1 164.88 98.24 164.83 98.22 165.97 94.09 166.03 94.1"/>
              <polygon class="cls-83" points="166.08 94.12 164.93 98.25 164.88 98.24 166.03 94.1 166.08 94.12"/>
              <polygon class="cls-176" points="166.13 94.13 164.98 98.27 164.93 98.25 166.08 94.12 166.13 94.13"/>
              <polygon class="cls-135" points="166.18 94.15 165.04 98.28 164.98 98.27 166.13 94.13 166.18 94.15"/>
              <polygon class="cls-145" points="166.23 94.16 165.09 98.3 165.04 98.28 166.18 94.15 166.23 94.16"/>
              <polygon class="cls-94" points="166.28 94.18 165.14 98.31 165.09 98.3 166.23 94.16 166.28 94.18"/>
              <polygon class="cls-85" points="166.34 94.19 165.19 98.33 165.14 98.31 166.28 94.18 166.34 94.19"/>
              <polygon class="cls-77" points="166.39 94.21 165.24 98.34 165.19 98.33 166.34 94.19 166.39 94.21"/>
              <polygon class="cls-131" points="166.44 94.22 165.29 98.36 165.24 98.34 166.39 94.21 166.44 94.22"/>
              <polygon class="cls-126" points="166.49 94.24 165.34 98.37 165.29 98.36 166.44 94.22 166.49 94.24"/>
              <polygon class="cls-64" points="166.54 94.25 165.4 98.39 165.34 98.37 166.49 94.24 166.54 94.25"/>
              <polygon class="cls-181" points="166.59 94.27 165.45 98.4 165.4 98.39 166.54 94.25 166.59 94.27"/>
              <polygon class="cls-29" points="166.64 94.29 165.5 98.42 165.45 98.4 166.59 94.27 166.64 94.29"/>
              <polygon class="cls-173" points="166.7 94.3 165.55 98.43 165.5 98.42 166.64 94.29 166.7 94.3"/>
              <polygon class="cls-180" points="166.75 94.32 165.6 98.45 165.55 98.43 166.7 94.3 166.75 94.32"/>
              <polygon class="cls-172" points="166.8 94.33 165.65 98.46 165.6 98.45 166.75 94.32 166.8 94.33"/>
              <polygon class="cls-86" points="166.85 94.35 165.7 98.48 165.65 98.46 166.8 94.33 166.85 94.35"/>
              <polygon class="cls-95" points="166.9 94.36 165.76 98.5 165.7 98.48 166.85 94.35 166.9 94.36"/>
              <polygon class="cls-123" points="166.95 94.38 165.81 98.51 165.76 98.5 166.9 94.36 166.95 94.38"/>
              <polygon class="cls-52" points="167 94.39 165.86 98.53 165.81 98.51 166.95 94.38 167 94.39"/>
              <polygon class="cls-22" points="167.06 94.41 165.91 98.54 165.86 98.53 167 94.39 167.06 94.41"/>
              <polygon class="cls-125" points="167.11 94.42 165.96 98.56 165.91 98.54 167.06 94.41 167.11 94.42"/>
              <polygon class="cls-109" points="167.16 94.44 166.01 98.57 165.96 98.56 167.11 94.42 167.16 94.44"/>
              <polygon class="cls-32" points="167.21 94.45 166.06 98.59 166.01 98.57 167.16 94.44 167.21 94.45"/>
              <polygon class="cls-65" points="167.26 94.47 166.12 98.6 166.06 98.59 167.21 94.45 167.26 94.47"/>
              <polygon class="cls-45" points="167.31 94.48 166.17 98.62 166.12 98.6 167.26 94.47 167.31 94.48"/>
              <polygon class="cls-139" points="167.36 94.5 166.22 98.63 166.17 98.62 167.31 94.48 167.36 94.5"/>
              <polygon class="cls-144" points="167.42 94.51 166.27 98.65 166.22 98.63 167.36 94.5 167.42 94.51"/>
              <polygon class="cls-19" points="167.47 94.53 166.32 98.66 166.27 98.65 167.42 94.51 167.47 94.53"/>
              <polygon class="cls-98" points="167.52 94.54 166.37 98.68 166.32 98.66 167.47 94.53 167.52 94.54"/>
              <polygon class="cls-7" points="167.57 94.56 166.42 98.69 166.37 98.68 167.52 94.54 167.57 94.56"/>
              <polygon class="cls-82" points="167.62 94.57 166.48 98.71 166.42 98.69 167.57 94.56 167.62 94.57"/>
              <polygon class="cls-170" points="167.67 94.59 166.53 98.72 166.48 98.71 167.62 94.57 167.67 94.59"/>
              <polygon class="cls-36" points="167.72 94.6 166.58 98.74 166.53 98.72 167.67 94.59 167.72 94.6"/>
              <polygon class="cls-51" points="167.78 94.62 166.63 98.75 166.58 98.74 167.72 94.6 167.78 94.62"/>
              <polygon class="cls-69" points="167.83 94.63 166.68 98.77 166.63 98.75 167.78 94.62 167.83 94.63"/>
              <polygon class="cls-157" points="167.88 94.65 166.73 98.78 166.68 98.77 167.83 94.63 167.88 94.65"/>
              <polygon class="cls-27" points="167.93 94.66 166.79 98.8 166.73 98.78 167.88 94.65 167.93 94.66"/>
              <polygon class="cls-155" points="167.98 94.68 166.84 98.81 166.79 98.8 167.93 94.66 167.98 94.68"/>
              <polygon class="cls-104" points="168.03 94.7 166.89 98.83 166.84 98.81 167.98 94.68 168.03 94.7"/>
              <polygon class="cls-42" points="168.08 94.71 166.94 98.84 166.89 98.83 168.03 94.7 168.08 94.71"/>
              <polygon class="cls-151" points="168.14 94.73 166.99 98.86 166.94 98.84 168.08 94.71 168.14 94.73"/>
              <polygon class="cls-41" points="168.19 94.74 167.04 98.87 166.99 98.86 168.14 94.73 168.19 94.74"/>
              <polygon class="cls-46" points="168.24 94.76 167.09 98.89 167.04 98.87 168.19 94.74 168.24 94.76"/>
              <polygon class="cls-8" points="168.29 94.77 167.15 98.91 167.09 98.89 168.24 94.76 168.29 94.77"/>
              <polygon class="cls-110" points="168.34 94.79 167.2 98.92 167.15 98.91 168.29 94.77 168.34 94.79"/>
              <polygon class="cls-136" points="168.39 94.8 167.25 98.94 167.2 98.92 168.34 94.79 168.39 94.8"/>
              <polygon class="cls-49" points="168.44 94.82 167.3 98.95 167.25 98.94 168.39 94.8 168.44 94.82"/>
              <polygon class="cls-73" points="168.5 94.83 167.35 98.97 167.3 98.95 168.44 94.82 168.5 94.83"/>
              <polygon class="cls-160" points="168.55 94.85 167.4 98.98 167.35 98.97 168.5 94.83 168.55 94.85"/>
              <polygon class="cls-33" points="168.6 94.86 167.45 99 167.4 98.98 168.55 94.85 168.6 94.86"/>
              <polygon class="cls-158" points="168.65 94.88 167.51 99.01 167.45 99 168.6 94.86 168.65 94.88"/>
              <polygon class="cls-11" points="168.7 94.89 167.56 99.03 167.51 99.01 168.65 94.88 168.7 94.89"/>
              <polygon class="cls-18" points="168.75 94.91 167.61 99.04 167.56 99.03 168.7 94.89 168.75 94.91"/>
              <polygon class="cls-122" points="168.8 94.92 167.66 99.06 167.61 99.04 168.75 94.91 168.8 94.92"/>
              <polygon class="cls-66" points="168.86 94.94 167.71 99.07 167.66 99.06 168.8 94.92 168.86 94.94"/>
              <polygon class="cls-113" points="168.91 94.95 167.76 99.09 167.71 99.07 168.86 94.94 168.91 94.95"/>
              <polygon class="cls-75" points="168.96 94.97 167.81 99.1 167.76 99.09 168.91 94.95 168.96 94.97"/>
              <polygon class="cls-62" points="169.01 94.98 167.87 99.12 167.81 99.1 168.96 94.97 169.01 94.98"/>
              <polygon class="cls-57" points="169.06 95 167.92 99.13 167.87 99.12 169.01 94.98 169.06 95"/>
              <polygon class="cls-79" points="169.11 95.01 167.97 99.15 167.92 99.13 169.06 95 169.11 95.01"/>
              <polygon class="cls-143" points="169.17 95.03 168.02 99.16 167.97 99.15 169.11 95.01 169.17 95.03"/>
              <polygon class="cls-24" points="169.22 95.04 168.07 99.18 168.02 99.16 169.17 95.03 169.22 95.04"/>
              <polygon class="cls-74" points="169.27 95.06 168.12 99.19 168.07 99.18 169.22 95.04 169.27 95.06"/>
              <polygon class="cls-48" points="169.32 95.07 168.17 99.21 168.12 99.19 169.27 95.06 169.32 95.07"/>
              <polygon class="cls-116" points="169.37 95.09 168.23 99.22 168.17 99.21 169.32 95.07 169.37 95.09"/>
              <polygon class="cls-6" points="169.42 95.11 168.28 99.24 168.23 99.22 169.37 95.09 169.42 95.11"/>
              <polygon class="cls-159" points="169.47 95.12 168.33 99.25 168.28 99.24 169.42 95.11 169.47 95.12"/>
              <polygon class="cls-107" points="169.53 95.14 168.38 99.27 168.33 99.25 169.47 95.12 169.53 95.14"/>
              <polygon class="cls-161" points="169.58 95.15 168.43 99.28 168.38 99.27 169.53 95.14 169.58 95.15"/>
              <polygon class="cls-127" points="169.63 95.17 168.48 99.3 168.43 99.28 169.58 95.15 169.63 95.17"/>
              <polygon class="cls-164" points="169.68 95.18 168.53 99.32 168.48 99.3 169.63 95.17 169.68 95.18"/>
              <polygon class="cls-88" points="169.73 95.2 168.59 99.33 168.53 99.32 169.68 95.18 169.73 95.2"/>
              <polygon class="cls-153" points="169.78 95.21 168.64 99.35 168.59 99.33 169.73 95.2 169.78 95.21"/>
              <polygon class="cls-138" points="169.83 95.23 168.69 99.36 168.64 99.35 169.78 95.21 169.83 95.23"/>
              <polygon class="cls-99" points="169.89 95.24 168.74 99.38 168.69 99.36 169.83 95.23 169.89 95.24"/>
              <polygon class="cls-12" points="169.94 95.26 168.79 99.39 168.74 99.38 169.89 95.24 169.94 95.26"/>
              <polygon class="cls-61" points="169.99 95.27 168.84 99.41 168.79 99.39 169.94 95.26 169.99 95.27"/>
              <polygon class="cls-108" points="170.04 95.29 168.89 99.42 168.84 99.41 169.99 95.27 170.04 95.29"/>
              <polygon class="cls-2" points="170.09 95.3 168.95 99.44 168.89 99.42 170.04 95.29 170.09 95.3"/>
              <polygon class="cls-30" points="170.14 95.32 169 99.45 168.95 99.44 170.09 95.3 170.14 95.32"/>
              <polygon class="cls-39" points="170.19 95.33 169.05 99.47 169 99.45 170.14 95.32 170.19 95.33"/>
              <polygon class="cls-149" points="170.25 95.35 169.1 99.48 169.05 99.47 170.19 95.33 170.25 95.35"/>
              <polygon class="cls-43" points="170.3 95.36 169.15 99.5 169.1 99.48 170.25 95.35 170.3 95.36"/>
              <polygon class="cls-102" points="170.35 95.38 169.2 99.51 169.15 99.5 170.3 95.36 170.35 95.38"/>
              <polygon class="cls-63" points="170.4 95.39 169.25 99.53 169.2 99.51 170.35 95.38 170.4 95.39"/>
              <polygon class="cls-124" points="170.45 95.41 169.31 99.54 169.25 99.53 170.4 95.39 170.45 95.41"/>
              <polygon class="cls-84" points="170.5 95.42 169.36 99.56 169.31 99.54 170.45 95.41 170.5 95.42"/>
              <polygon class="cls-3" points="170.55 95.44 169.41 99.57 169.36 99.56 170.5 95.42 170.55 95.44"/>
              <polygon class="cls-26" points="170.61 95.45 169.46 99.59 169.41 99.57 170.55 95.44 170.61 95.45"/>
              <polygon class="cls-105" points="170.66 95.47 169.51 99.6 169.46 99.59 170.61 95.45 170.66 95.47"/>
              <polygon class="cls-89" points="170.71 95.48 169.56 99.62 169.51 99.6 170.66 95.47 170.71 95.48"/>
              <polygon class="cls-120" points="170.76 95.5 169.62 99.63 169.56 99.62 170.71 95.48 170.76 95.5"/>
              <polygon class="cls-167" points="170.81 95.52 169.67 99.65 169.62 99.63 170.76 95.5 170.81 95.52"/>
              <polygon class="cls-106" points="170.86 95.53 169.72 99.66 169.67 99.65 170.81 95.52 170.86 95.53"/>
              <polygon class="cls-58" points="170.91 95.55 169.77 99.68 169.72 99.66 170.86 95.53 170.91 95.55"/>
              <polygon class="cls-59" points="170.97 95.56 169.82 99.69 169.77 99.68 170.91 95.55 170.97 95.56"/>
              <polygon class="cls-47" points="171.02 95.58 169.87 99.71 169.82 99.69 170.97 95.56 171.02 95.58"/>
              <polygon class="cls-5" points="171.07 95.59 169.92 99.73 169.87 99.71 171.02 95.58 171.07 95.59"/>
              <polygon class="cls-4" points="171.12 95.61 169.98 99.74 169.92 99.73 171.07 95.59 171.12 95.61"/>
              <polygon class="cls-90" points="171.17 95.62 170.03 99.76 169.98 99.74 171.12 95.61 171.17 95.62"/>
              <polygon class="cls-44" points="171.22 95.64 170.08 99.77 170.03 99.76 171.17 95.62 171.22 95.64"/>
              <polygon class="cls-72" points="171.27 95.65 170.13 99.79 170.08 99.77 171.22 95.64 171.27 95.65"/>
              <polygon class="cls-50" points="171.33 95.67 170.18 99.8 170.13 99.79 171.27 95.65 171.33 95.67"/>
              <polygon class="cls-97" points="171.38 95.68 170.23 99.82 170.18 99.8 171.33 95.67 171.38 95.68"/>
              <polygon class="cls-76" points="171.43 95.7 170.28 99.83 170.23 99.82 171.38 95.68 171.43 95.7"/>
              <polygon class="cls-118" points="171.48 95.71 170.34 99.85 170.28 99.83 171.43 95.7 171.48 95.71"/>
              <polygon class="cls-54" points="171.53 95.73 170.39 99.86 170.34 99.85 171.48 95.71 171.53 95.73"/>
              <polygon class="cls-114" points="171.58 95.74 170.44 99.88 170.39 99.86 171.53 95.73 171.58 95.74"/>
              <polygon class="cls-13" points="171.63 95.76 170.49 99.89 170.44 99.88 171.58 95.74 171.63 95.76"/>
              <polygon class="cls-174" points="171.69 95.77 170.54 99.91 170.49 99.89 171.63 95.76 171.69 95.77"/>
              <polygon class="cls-148" points="171.74 95.79 170.59 99.92 170.54 99.91 171.69 95.77 171.74 95.79"/>
              <polygon class="cls-133" points="171.79 95.8 170.64 99.94 170.59 99.92 171.74 95.79 171.79 95.8"/>
              <polygon class="cls-23" points="171.84 95.82 170.7 99.95 170.64 99.94 171.79 95.8 171.84 95.82"/>
              <polygon class="cls-17" points="171.89 95.83 170.75 99.97 170.7 99.95 171.84 95.82 171.89 95.83"/>
              <polygon class="cls-34" points="171.94 95.85 170.8 99.98 170.75 99.97 171.89 95.83 171.94 95.85"/>
              <polygon class="cls-137" points="171.99 95.86 170.85 100 170.8 99.98 171.94 95.85 171.99 95.86"/>
              <polygon class="cls-101" points="172.05 95.88 170.9 100.01 170.85 100 171.99 95.86 172.05 95.88"/>
              <polygon class="cls-91" points="172.1 95.89 170.95 100.03 170.9 100.01 172.05 95.88 172.1 95.89"/>
              <polygon class="cls-111" points="172.15 95.91 171 100.04 170.95 100.03 172.1 95.89 172.15 95.91"/>
              <polygon class="cls-156" points="172.2 95.93 171.06 100.06 171 100.04 172.15 95.91 172.2 95.93"/>
              <polygon class="cls-16" points="172.25 95.94 171.11 100.07 171.06 100.06 172.2 95.93 172.25 95.94"/>
              <polygon class="cls-166" points="172.3 95.96 171.16 100.09 171.11 100.07 172.25 95.94 172.3 95.96"/>
              <polygon class="cls-128" points="172.36 95.97 171.21 100.1 171.16 100.09 172.3 95.96 172.36 95.97"/>
              <polygon class="cls-70" points="172.41 95.99 171.26 100.12 171.21 100.1 172.36 95.97 172.41 95.99"/>
              <polygon class="cls-162" points="172.46 96 171.31 100.14 171.26 100.12 172.41 95.99 172.46 96"/>
              <polygon class="cls-93" points="172.51 96.02 171.36 100.15 171.31 100.14 172.46 96 172.51 96.02"/>
              <polygon class="cls-1" points="172.56 96.03 171.42 100.17 171.36 100.15 172.51 96.02 172.56 96.03"/>
              <polygon class="cls-165" points="172.61 96.05 171.47 100.18 171.42 100.17 172.56 96.03 172.61 96.05"/>
              <polygon class="cls-132" points="172.66 96.06 171.52 100.2 171.47 100.18 172.61 96.05 172.66 96.06"/>
              <polygon class="cls-14" points="172.72 96.08 171.57 100.21 171.52 100.2 172.66 96.06 172.72 96.08"/>
              <polygon class="cls-21" points="172.77 96.09 171.62 100.23 171.57 100.21 172.72 96.08 172.77 96.09"/>
              <polygon class="cls-134" points="172.82 96.11 171.67 100.24 171.62 100.23 172.77 96.09 172.82 96.11"/>
              <polygon class="cls-55" points="172.87 96.12 171.72 100.26 171.67 100.24 172.82 96.11 172.87 96.12"/>
              <polygon class="cls-119" points="172.92 96.14 171.78 100.27 171.72 100.26 172.87 96.12 172.92 96.14"/>
              <polygon class="cls-163" points="172.97 96.15 171.83 100.29 171.78 100.27 172.92 96.14 172.97 96.15"/>
              <polygon class="cls-56" points="173.02 96.17 171.88 100.3 171.83 100.29 172.97 96.15 173.02 96.17"/>
              <polygon class="cls-147" points="173.08 96.18 171.93 100.32 171.88 100.3 173.02 96.17 173.08 96.18"/>
              <polygon class="cls-92" points="173.13 96.2 171.9 98.18 171.32 100.14 171.93 100.32 173.08 96.18 173.13 96.2"/>
              <polygon class="cls-92" points="171.9 98.18 173.13 96.2 172.54 96.02 171.9 98.18"/>
            </g>
          </g>
          <g>
            <path class="cls-168" d="M154.74,51.66s10.76-28.08,29.73-28.66c0,0-4.89-2.97-10.76-1.04-5.87,1.93-21.89,14.35-23.72,29.87,3.58,1.64,4.75-.17,4.75-.17Z"/>
            <path class="cls-130" d="M156.17,45.95c-10.21-2.68-14.83,9.62-14.83,9.62-4.86,8.19-4.45,13.63-2.25,17.21,1.5,2.44,4.18,3.92,7.04,3.89,2.87-.03,5.51-1.56,6.96-4.03,1.31-2.23,2.59-4.34,3.15-5.04,1.35-1.69,10.14-18.96-.07-21.64Z"/>
          </g>
          <path class="cls-100" d="M155.56,49.33c-1.76-1.28-4.17-1.19-5.82,.22-11.86,10.12-9.16,21.83-5.9,23.65,3.43,1.92,11.7-15.07,13.08-19.78,.58-1.98-.22-3.26-1.36-4.08Z"/>
        </g>
      </g>
    </g>
  </g>
</svg>