<?xml version="1.0" encoding="UTF-8"?>
<svg xmlns="http://www.w3.org/2000/svg" viewBox="0 0 128.56 117.54">
  <defs>
    <style>
      .cls-1 {
        isolation: isolate;
      }

      .cls-2 {
        mix-blend-mode: multiply;
      }

      .cls-2, .cls-3 {
        fill: #1637bd;
      }
    </style>
  </defs>
  <g class="cls-1">
    <g id="Design">
      <g>
        <path class="cls-2" d="M70.17,11.82C64.8,4.88,59.45,0,59.45,0c0,0-5.37,4.88-10.73,11.82-4.35,5.62,.71,7.76,6.22,25.4,3.82,12.24,4.49,31.56,4.49,31.56l.03-.08,.02,.08s.67-19.32,4.49-31.56c5.51-17.63,10.55-19.77,6.21-25.4Z"/>
        <path class="cls-2" d="M107.53,36.08c1.14-8.68,.82-15.9,.82-15.9,0,0-7.25-.33-15.98,.8-7.07,.91-5.03,5.98-13.67,22.32-6.01,11.35-19.28,25.47-19.28,25.47l.07-.03-.04,.07s14.22-13.19,25.62-19.14c16.43-8.59,21.52-6.55,22.45-13.58Z"/>
        <path class="cls-2" d="M116.67,79.52c6.98-5.33,11.89-10.66,11.89-10.66,0,0-4.9-5.33-11.86-10.67-5.65-4.33-7.8,.69-25.54,6.15-12.31,3.79-31.74,4.43-31.74,4.43l.08,.02-.08,.02s19.42,.69,31.73,4.51c17.72,5.49,19.86,10.53,25.52,6.2Z"/>
        <path class="cls-2" d="M92.24,116.66c8.73,1.15,15.98,.84,15.98,.84,0,0,.33-7.22-.79-15.9-.92-7.03-6.01-5-22.42-13.62-11.4-5.98-25.58-19.2-25.58-19.2l.04,.07-.07-.04s13.25,14.16,19.22,25.51c8.61,16.36,6.56,21.42,13.63,22.35Z"/>
        <path class="cls-2" d="M26.7,20.83c-8.72-1.17-15.98-.87-15.98-.87,0,0-.35,7.22,.76,15.9,.89,7.03,6,5.01,22.4,13.67,11.38,6,25.54,19.25,25.54,19.25l-.04-.07,.07,.05s-13.21-14.18-19.17-25.55c-8.58-16.38-6.51-21.43-13.58-22.37Z"/>
        <g>
          <path class="cls-3" d="M8.26,86.86H0v-15.28H2.33v13.33h5.93v1.96Z"/>
          <path class="cls-3" d="M19.75,81.27c0,4.11-2.69,5.81-5.18,5.81-2.88,0-5.07-2.09-5.07-5.65s2.29-5.82,5.22-5.82,5.02,2.27,5.02,5.66Zm-5.1-3.92c-1.99,0-2.75,2.12-2.75,4.02,0,2.16,1.02,3.98,2.73,3.98s2.73-1.82,2.73-4.02c0-1.82-.76-3.98-2.71-3.98Z"/>
          <path class="cls-3" d="M27.62,77.88c-.2-.03-.42-.05-.69-.05-1.56,0-2.55,1.27-2.55,3.2v5.83h-2.33v-7.65c0-1.28-.02-2.34-.08-3.36h2.03l.08,2.02h.08c.5-1.4,1.67-2.26,2.87-2.26,.22,0,.38,.02,.58,.06v2.21Z"/>
          <path class="cls-3" d="M37.52,86.43c-.78,.35-2.01,.65-3.52,.65-3.33,0-5.26-2.22-5.26-5.57s1.85-5.89,4.98-5.89,4.36,2.57,4.36,5.3c0,.38-.02,.7-.06,.98h-7.03c.06,2.47,1.61,3.41,3.35,3.41,1.22,0,2.07-.22,2.79-.51l.38,1.64Zm-1.65-6.2c.02-1.32-.52-2.96-2.31-2.96s-2.44,1.68-2.56,2.96h4.86Z"/>
          <path class="cls-3" d="M55.52,86.86h-2.29v-6.29c0-1.84-.6-3.06-2.01-3.06-1.06,0-2.15,.96-2.15,2.57v6.78h-2.29v-6.63c0-1.54-.58-2.72-1.93-2.72-1.04,0-2.23,.94-2.23,2.68v6.67h-2.29v-7.91c0-1.24-.04-2.16-.08-3.1h2.01l.12,1.62h.06c.54-.92,1.55-1.86,3.24-1.86,1.4,0,2.47,.77,2.93,2.02h.04c.74-1.23,1.83-2.02,3.41-2.02s3.46,1.12,3.46,4.6v6.65Z"/>
        </g>
        <g>
          <path class="cls-3" d="M0,91.7H1.52v9.94H0v-9.94Z"/>
          <path class="cls-3" d="M3.6,91.81c.6-.09,1.4-.19,2.43-.19,1.23,0,2.16,.26,2.76,.79,.56,.48,.9,1.23,.9,2.15,0,2.42-1.94,3.26-3.74,3.26-.31,0-.6-.01-.85-.07v3.9h-1.51v-9.84Zm1.51,4.73c.22,.07,.5,.08,.85,.08,1.39,0,2.23-.72,2.23-2,0-1.21-.84-1.82-2.06-1.82-.47,0-.82,.06-1.02,.09v3.65Z"/>
          <path class="cls-3" d="M15.92,93.24c-.33-.18-.96-.44-1.78-.44-1.18,0-1.68,.69-1.68,1.33,0,.85,.56,1.26,1.83,1.81,1.61,.7,2.38,1.58,2.38,2.94,0,1.67-1.24,2.91-3.49,2.91-.93,0-1.93-.27-2.42-.61l.34-1.25c.53,.33,1.35,.59,2.17,.59,1.19,0,1.85-.61,1.85-1.5s-.51-1.37-1.7-1.87c-1.49-.59-2.5-1.49-2.5-2.84,0-1.58,1.27-2.76,3.26-2.76,.95,0,1.68,.23,2.1,.46l-.36,1.24Z"/>
          <path class="cls-3" d="M25.32,97.59c0,2.95-1.48,4.2-3.61,4.2s-3.44-1.2-3.44-4.16v-5.93h1.51v6.02c0,1.99,.83,2.84,1.98,2.84,1.26,0,2.04-.86,2.04-2.84v-6.02h1.52v5.89Z"/>
          <path class="cls-3" d="M36.96,101.64h-1.46l-.22-4.19c-.07-1.34-.15-2.89-.13-4.12h-.04c-.3,1.17-.69,2.45-1.12,3.71l-1.49,4.51h-1.14l-1.37-4.42c-.4-1.31-.76-2.61-1.01-3.8h-.04c-.03,1.24-.1,2.81-.19,4.21l-.22,4.1h-1.41l.68-9.96h1.88l1.41,4.39c.37,1.22,.67,2.32,.92,3.42h.04c.25-1.06,.57-2.2,.96-3.43l1.45-4.37h1.9l.6,9.96Z"/>
        </g>
        <g>
          <path class="cls-3" d="M0,107.49c.21,.17,.45,.24,.7,.24,.35,0,.52-.12,.52-.35,0-.1-.03-.19-.11-.25-.08-.06-.23-.13-.45-.22-.27-.1-.44-.2-.53-.32-.09-.1-.13-.23-.13-.39,0-.22,.09-.38,.27-.51,.18-.13,.4-.2,.66-.2,.21,0,.39,.04,.56,.12v.38c-.18-.12-.39-.18-.62-.18-.15,0-.26,.03-.35,.1-.09,.07-.14,.15-.14,.25s.04,.19,.1,.24c.06,.05,.2,.12,.42,.22,.28,.1,.47,.21,.56,.31,.09,.11,.14,.24,.14,.4,0,.23-.09,.39-.26,.51-.18,.13-.41,.19-.69,.19-.25,0-.47-.05-.65-.15v-.4Z"/>
          <path class="cls-3" d="M2.27,105.73c.24-.15,.52-.24,.83-.24,.57,0,.85,.3,.85,.91v1.59h-.37v-.39h-.01c-.17,.29-.42,.44-.75,.44-.24,0-.43-.07-.57-.2-.14-.13-.21-.29-.21-.51,0-.45,.27-.71,.8-.79l.74-.1c0-.43-.17-.63-.51-.63-.29,0-.56,.1-.8,.3v-.38Zm.71,1.11c-.21,.02-.35,.07-.44,.15-.08,.07-.12,.17-.12,.33,0,.12,.05,.22,.13,.29,.09,.08,.2,.12,.35,.12,.19,0,.36-.08,.49-.21,.13-.14,.19-.32,.19-.52v-.25l-.6,.08Z"/>
          <path class="cls-3" d="M8.14,108h-.37v-1.41c0-.29-.04-.48-.13-.6-.08-.12-.23-.18-.43-.18-.16,0-.31,.08-.43,.24-.12,.15-.18,.34-.18,.55v1.39h-.37v-1.46c0-.47-.19-.72-.57-.72-.18,0-.32,.08-.43,.22-.11,.15-.17,.34-.17,.57v1.39h-.37v-2.43h.37v.38h.01c.17-.3,.42-.45,.75-.45,.16,0,.3,.05,.43,.14,.13,.1,.22,.21,.26,.37,.18-.34,.45-.51,.81-.51,.53,0,.81,.34,.81,.99v1.5Z"/>
          <path class="cls-3" d="M9.26,107.64v1.47h-.37v-3.54h.37v.43h.01c.2-.32,.48-.49,.85-.49,.31,0,.56,.11,.73,.33,.18,.22,.27,.51,.27,.89,0,.4-.1,.73-.3,.97-.2,.25-.47,.37-.82,.37-.31,0-.56-.14-.73-.41h-.01Zm0-.62c0,.2,.07,.37,.21,.51,.14,.14,.31,.22,.51,.22,.24,0,.43-.09,.56-.28,.14-.18,.21-.44,.21-.76,0-.27-.07-.48-.2-.64-.13-.16-.3-.24-.52-.24-.23,0-.41,.08-.56,.24-.15,.16-.22,.36-.22,.6v.36Z"/>
          <path class="cls-3" d="M11.76,108v-3.61h.37v3.61h-.37Z"/>
          <path class="cls-3" d="M14.88,106.86h-1.74c0,.28,.08,.5,.23,.65,.15,.14,.34,.22,.58,.22,.27,0,.53-.09,.76-.28v.35c-.21,.15-.49,.24-.85,.24-.34,0-.61-.11-.8-.33-.2-.23-.29-.54-.29-.93,0-.37,.11-.68,.32-.92,.22-.24,.48-.37,.8-.37s.56,.1,.73,.31c.18,.21,.27,.49,.27,.86v.2Zm-.38-.33c0-.23-.06-.4-.16-.53-.11-.12-.26-.19-.46-.19-.18,0-.33,.07-.47,.19-.13,.14-.22,.3-.25,.53h1.35Z"/>
          <path class="cls-3" d="M17.72,107.96c-.08,.06-.2,.08-.35,.08-.42,0-.63-.23-.63-.7v-1.46h-.42v-.32h.42v-.61l.37-.11v.72h.62v.32h-.62v1.39c0,.17,.03,.28,.08,.35,.06,.07,.15,.11,.28,.11,.1,0,.19-.03,.25-.08v.31Z"/>
          <path class="cls-3" d="M20.17,106.86h-1.74c.01,.28,.08,.5,.22,.65,.14,.14,.34,.22,.59,.22,.27,0,.53-.09,.76-.28v.35c-.22,.15-.5,.24-.85,.24s-.61-.11-.8-.33c-.2-.23-.29-.54-.29-.93,0-.37,.1-.68,.32-.92,.21-.24,.48-.37,.8-.37s.55,.1,.73,.31c.17,.21,.26,.49,.26,.86v.2Zm-.38-.33c0-.23-.06-.4-.17-.53-.11-.12-.26-.19-.46-.19-.18,0-.34,.07-.47,.19-.13,.14-.22,.3-.25,.53h1.35Z"/>
          <path class="cls-3" d="M22.52,105.56l-.82,1.23,.81,1.2h-.43l-.49-.81c-.03-.05-.06-.11-.1-.18h-.01s-.04,.06-.11,.18l-.5,.81h-.43l.83-1.2-.8-1.23h.43l.58,1.02h0s.03-.05,.05-.08l.58-.94h.4Z"/>
          <path class="cls-3" d="M24.09,107.96c-.09,.06-.2,.08-.35,.08-.42,0-.63-.23-.63-.7v-1.46h-.43v-.32h.43v-.61l.37-.11v.72h.61v.32h-.61v1.39c0,.17,.03,.28,.08,.35,.06,.07,.15,.11,.29,.11,.1,0,.18-.03,.24-.08v.31Z"/>
          <path class="cls-3" d="M27.77,108h-.37v-1.41c0-.51-.19-.77-.58-.77-.2,0-.36,.08-.49,.22-.13,.16-.2,.34-.2,.58v1.38h-.37v-3.61h.37v1.58h.01c.19-.3,.46-.46,.8-.46,.55,0,.82,.34,.82,.99v1.5Z"/>
          <path class="cls-3" d="M30.47,106.86h-1.74c0,.28,.09,.5,.23,.65,.14,.14,.34,.22,.58,.22,.28,0,.53-.09,.76-.28v.35c-.21,.15-.49,.24-.85,.24s-.61-.11-.81-.33c-.2-.23-.29-.54-.29-.93,0-.37,.1-.68,.32-.92,.21-.24,.48-.37,.79-.37s.57,.1,.74,.31c.18,.21,.26,.49,.26,.86v.2Zm-.38-.33c0-.23-.05-.4-.17-.53-.11-.12-.26-.19-.46-.19-.17,0-.33,.07-.46,.19-.14,.14-.22,.3-.26,.53h1.35Z"/>
          <path class="cls-3" d="M32.32,105.93c-.06-.05-.16-.08-.29-.08-.18,0-.32,.08-.43,.24-.11,.17-.17,.39-.17,.64v1.26h-.37v-2.43h.37v.5h0c.06-.17,.14-.31,.26-.4,.11-.09,.24-.14,.38-.14,.1,0,.19,.02,.24,.03v.39Z"/>
          <path class="cls-3" d="M34.64,106.86h-1.74c0,.28,.08,.5,.22,.65,.14,.14,.34,.22,.58,.22,.27,0,.53-.09,.77-.28v.35c-.22,.15-.49,.24-.85,.24s-.61-.11-.81-.33c-.2-.23-.3-.54-.3-.93,0-.37,.1-.68,.32-.92,.21-.24,.48-.37,.8-.37s.56,.1,.73,.31c.18,.21,.27,.49,.27,.86v.2Zm-.38-.33c0-.23-.06-.4-.17-.53-.1-.12-.25-.19-.46-.19-.18,0-.33,.07-.47,.19-.13,.14-.22,.3-.26,.53h1.35Z"/>
        </g>
      </g>
    </g>
  </g>
</svg>