<?xml version="1.0" encoding="UTF-8"?>
<svg id="Design" xmlns="http://www.w3.org/2000/svg" viewBox="0 0 114.02 140.7">
  <defs>
    <style>
      .cls-1 {
        fill: #a35a5a;
      }
    </style>
  </defs>
  <g>
    <path class="cls-1" d="M12.04,132.39l-1.21,3.8H0v-.39H.52c.59,0,1.02-.19,1.27-.58,.14-.22,.21-.72,.21-1.52v-9.05c0-.87-.09-1.42-.28-1.63-.26-.31-.65-.46-1.2-.46H0v-.38H6.34v.38c-.38,0-.69,.02-.94,.06-.26,.04-.47,.09-.63,.15-.15,.07-.28,.14-.38,.24-.1,.08-.17,.19-.24,.31-.1,.21-.16,.73-.16,1.58v8.81c0,.47,.04,.82,.11,1.04,.07,.22,.22,.36,.43,.45,.18,.06,.72,.1,1.63,.1h1.01c.55,0,1-.02,1.36-.05,.36-.03,.66-.1,.91-.17,.25-.09,.46-.2,.64-.33,.18-.14,.36-.31,.55-.52,.18-.21,.36-.47,.53-.8,.18-.31,.35-.68,.54-1.11l.34,.08Z"/>
    <path class="cls-1" d="M17.78,126.44c.66,0,1.25,.12,1.82,.38,.55,.26,1.04,.6,1.44,1.04,.41,.44,.72,.95,.95,1.54,.23,.59,.35,1.23,.35,1.88,0,.44-.05,.87-.16,1.28-.1,.42-.25,.85-.45,1.29-.42,.88-.97,1.54-1.68,1.97-.71,.44-1.5,.66-2.38,.66-.66,0-1.25-.13-1.8-.41-.54-.26-1.02-.62-1.41-1.08-.39-.45-.7-.98-.92-1.57-.22-.6-.33-1.22-.33-1.86,0-.88,.21-1.75,.64-2.59,.22-.42,.47-.8,.76-1.11,.29-.32,.61-.57,.94-.79,.34-.21,.69-.36,1.07-.46,.38-.11,.76-.16,1.15-.16Zm-.3,.67c-.31,0-.61,.06-.89,.19-.28,.12-.52,.33-.74,.62-.21,.29-.38,.66-.51,1.11-.13,.44-.19,.99-.19,1.63s.07,1.31,.2,1.93c.14,.61,.34,1.15,.59,1.61,.27,.47,.58,.84,.95,1.11,.38,.28,.79,.42,1.24,.42,.33,0,.63-.07,.91-.2,.28-.12,.52-.32,.73-.61,.21-.29,.36-.66,.48-1.12,.11-.47,.17-1.05,.17-1.73s-.07-1.31-.2-1.92c-.13-.6-.32-1.12-.57-1.58-.25-.45-.55-.81-.93-1.07-.36-.26-.78-.39-1.24-.39Z"/>
    <path class="cls-1" d="M26.51,126.44v2.14c.78-1.42,1.59-2.14,2.43-2.14,.18,0,.36,.03,.52,.09,.16,.07,.3,.15,.42,.25,.11,.11,.21,.24,.27,.38,.07,.14,.1,.28,.1,.44,0,.26-.09,.48-.27,.67-.18,.19-.39,.28-.64,.28-.12,0-.25-.04-.39-.12-.14-.07-.28-.15-.42-.24-.15-.09-.28-.16-.4-.24-.12-.08-.21-.12-.26-.12-.2,0-.41,.15-.65,.45-.25,.3-.48,.68-.71,1.15v4.54c0,.29,.01,.55,.04,.77,.04,.23,.12,.41,.23,.58,.12,.15,.29,.28,.5,.36,.22,.08,.51,.12,.87,.12v.37h-4.84v-.37c.31,0,.57-.03,.76-.07,.2-.04,.35-.13,.45-.25,.1-.13,.17-.3,.22-.53,.03-.23,.05-.52,.05-.9v-3.67c0-1.09-.02-1.75-.07-1.96-.05-.22-.14-.37-.25-.47-.11-.1-.27-.15-.44-.15-.23,0-.47,.05-.72,.16l-.1-.37,2.86-1.17h.44Z"/>
    <path class="cls-1" d="M32.36,130.29c0,.7,.09,1.33,.28,1.88,.19,.56,.44,1.03,.76,1.42,.32,.39,.68,.68,1.1,.89,.42,.21,.86,.3,1.33,.3,.61,0,1.16-.17,1.61-.5,.46-.35,.84-.93,1.15-1.75l.32,.2c-.07,.45-.21,.89-.43,1.35-.22,.45-.49,.84-.83,1.2-.33,.35-.72,.64-1.16,.86-.44,.23-.93,.33-1.45,.33-.56,0-1.09-.11-1.59-.35-.5-.22-.94-.54-1.31-.98-.38-.42-.67-.94-.89-1.55-.22-.6-.33-1.28-.33-2.02,0-.81,.11-1.53,.33-2.17,.22-.64,.53-1.17,.92-1.61,.38-.44,.85-.78,1.39-1.02,.53-.23,1.1-.35,1.74-.35,.52,0,1.01,.1,1.45,.27,.45,.19,.84,.45,1.15,.78,.32,.34,.57,.74,.76,1.23,.18,.47,.27,1,.27,1.58h-6.55Zm4.39-.6c-.04-.63-.12-1.06-.21-1.28-.18-.38-.44-.69-.77-.91-.35-.22-.71-.33-1.08-.33-.28,0-.55,.06-.81,.17-.27,.12-.5,.28-.71,.5-.2,.22-.39,.47-.53,.79-.15,.32-.24,.67-.27,1.07h4.39Z"/>
    <path class="cls-1" d="M42.98,128.45c.35-.35,.63-.62,.82-.82,.2-.2,.33-.32,.39-.36,.32-.26,.66-.46,1.02-.61,.36-.14,.7-.22,1.06-.22,.6,0,1.11,.17,1.54,.52,.43,.34,.71,.85,.85,1.49,.35-.42,.68-.76,.98-1.02,.3-.26,.57-.46,.82-.62,.26-.14,.51-.24,.74-.29,.25-.05,.5-.08,.77-.08,.35,0,.67,.06,.98,.18,.3,.11,.55,.3,.78,.58,.22,.28,.41,.64,.53,1.1,.13,.45,.19,1.01,.19,1.68v4.08c0,.31,0,.59,.03,.81,.02,.23,.07,.41,.16,.55,.09,.14,.24,.24,.43,.3,.19,.07,.47,.1,.82,.1v.37h-4.68v-.37h.2c.26,0,.47-.03,.65-.07,.17-.04,.31-.13,.41-.26,.1-.12,.17-.3,.22-.53,.05-.23,.06-.53,.06-.9v-4.08c0-.45-.03-.81-.1-1.11-.07-.29-.17-.53-.3-.7-.13-.18-.3-.3-.49-.37-.2-.06-.42-.1-.67-.1-.19,0-.36,.03-.54,.07-.18,.04-.36,.11-.55,.22-.19,.1-.41,.23-.62,.4-.22,.17-.46,.37-.71,.62v5.08c0,.32,0,.59,.02,.79,0,.19,.04,.34,.07,.42,.07,.16,.21,.28,.41,.39,.2,.11,.55,.17,1.03,.17v.37h-4.77v-.37c.36,0,.65-.03,.86-.07,.21-.05,.36-.15,.46-.28,.1-.13,.16-.32,.18-.55,.02-.23,.03-.52,.03-.86v-4.08c0-.43-.04-.81-.12-1.1-.08-.3-.19-.54-.33-.72-.14-.18-.32-.31-.51-.4-.21-.07-.42-.1-.65-.1s-.46,.04-.69,.12c-.24,.08-.46,.19-.69,.31-.21,.13-.42,.28-.59,.44-.19,.16-.34,.3-.45,.45v5.08c0,.31,.01,.57,.03,.76,.03,.19,.06,.34,.1,.45,.04,.12,.09,.2,.15,.25,.07,.07,.14,.11,.24,.16,.16,.09,.5,.14,1.02,.14v.37h-4.69v-.37c.32,0,.58-.03,.77-.09,.2-.05,.34-.14,.44-.28,.1-.14,.16-.31,.18-.53,.03-.23,.04-.52,.04-.86v-3.63c0-.61-.01-1.09-.03-1.44-.01-.35-.06-.61-.11-.79-.06-.17-.13-.28-.23-.32-.1-.05-.22-.07-.37-.07-.2,0-.44,.05-.7,.16l-.15-.37,2.85-1.17h.45v2.01Z"/>
    <path class="cls-1" d="M67.77,135.79v.39h-6.01v-.39h.5c.58,0,1-.16,1.26-.5,.17-.24,.25-.77,.25-1.59v-9.05c0-.32,0-.59-.03-.79-.01-.22-.04-.39-.07-.52-.05-.13-.1-.24-.18-.31-.07-.08-.18-.15-.29-.22-.31-.18-.63-.25-.95-.25h-.5v-.38h6.01v.38h-.51c-.56,0-.99,.17-1.25,.51-.17,.22-.26,.75-.26,1.59v9.05c0,.34,0,.61,.01,.82,.02,.2,.05,.37,.08,.51,.04,.11,.1,.22,.17,.3,.08,.08,.18,.15,.3,.22,.28,.15,.6,.24,.94,.24h.51Z"/>
    <path class="cls-1" d="M68.26,127.66l2.92-1.18h.4v2.21c.25-.42,.49-.77,.74-1.06,.24-.28,.49-.52,.74-.69,.25-.19,.5-.3,.75-.39,.25-.08,.52-.11,.79-.11,.54,0,1.03,.12,1.47,.36,.43,.25,.81,.59,1.12,1.01,.3,.43,.54,.91,.71,1.49,.16,.57,.25,1.16,.25,1.81,0,.7-.1,1.39-.3,2.03-.21,.65-.5,1.22-.88,1.71-.37,.49-.82,.89-1.36,1.18-.53,.29-1.12,.44-1.78,.44-.24,0-.45-.02-.64-.03-.19-.02-.38-.06-.55-.12-.18-.07-.35-.16-.52-.26-.17-.11-.35-.25-.54-.43v2.88c0,.34,0,.61,.03,.81,.01,.2,.04,.34,.09,.45,.03,.1,.09,.18,.15,.24,.07,.06,.15,.11,.25,.15,.2,.11,.55,.17,1.08,.17v.37h-4.96v-.37h.27c.26,0,.51-.04,.76-.12,.24-.08,.41-.23,.51-.47,.07-.15,.11-.58,.11-1.28v-8.95c0-.37-.01-.67-.04-.88-.03-.23-.06-.39-.13-.5-.06-.12-.15-.19-.26-.23-.1-.04-.24-.06-.41-.06-.15,0-.36,.05-.64,.14l-.13-.33Zm3.31,5.18c0,.78,.03,1.28,.09,1.5,.05,.2,.13,.39,.25,.58,.12,.19,.28,.34,.46,.48,.18,.14,.39,.24,.63,.34,.24,.07,.5,.12,.79,.12,.4,0,.76-.09,1.06-.28,.32-.19,.58-.45,.8-.78,.2-.33,.38-.73,.49-1.2,.1-.46,.16-.95,.16-1.5,0-.6-.06-1.15-.17-1.65-.12-.51-.3-.95-.51-1.32-.22-.37-.49-.66-.8-.87-.3-.2-.65-.31-1.04-.31-.32,0-.65,.09-.98,.25-.24,.12-.66,.5-1.22,1.12v3.53Z"/>
    <path class="cls-1" d="M85.64,126.44v3.22h-.36c-.13-.5-.28-.93-.45-1.27-.16-.33-.35-.6-.57-.8-.2-.21-.44-.34-.7-.43-.26-.08-.55-.12-.85-.12-.24,0-.46,.04-.65,.11-.19,.06-.37,.16-.51,.27-.14,.12-.24,.24-.34,.4-.07,.15-.11,.3-.11,.45,0,.19,.02,.36,.07,.53,.04,.17,.13,.32,.25,.47,.12,.16,.29,.3,.51,.44,.21,.15,.48,.3,.81,.46l1.51,.72c.7,.34,1.23,.74,1.58,1.19,.34,.45,.51,.96,.51,1.5,0,.44-.09,.82-.27,1.18-.18,.36-.43,.66-.72,.91-.3,.25-.63,.43-1.02,.57-.37,.14-.76,.21-1.15,.21-.6,0-1.26-.11-1.98-.31-.25-.07-.44-.1-.57-.1-.16,0-.29,.09-.37,.28h-.33v-3.38h.33c.09,.48,.24,.92,.42,1.28,.2,.36,.42,.66,.68,.91,.27,.24,.55,.42,.86,.54,.31,.11,.63,.17,.97,.17,.23,0,.45-.05,.64-.11,.21-.07,.37-.17,.52-.3,.14-.13,.25-.28,.33-.46,.08-.17,.12-.35,.12-.54,0-.21-.03-.41-.08-.57-.05-.17-.14-.34-.28-.49-.14-.16-.32-.32-.56-.48-.23-.16-.53-.34-.88-.52l-1.35-.7c-.37-.19-.67-.39-.9-.56-.23-.19-.41-.37-.54-.58-.12-.2-.21-.41-.26-.63-.05-.22-.07-.47-.07-.73,0-.39,.07-.74,.21-1.08,.15-.33,.34-.62,.6-.86,.25-.26,.55-.45,.9-.58,.35-.14,.74-.22,1.16-.22,.13,0,.29,.02,.5,.06,.2,.05,.41,.09,.62,.14,.22,.05,.41,.1,.58,.13,.17,.04,.29,.07,.35,.07,.11,0,.19-.03,.26-.08,.07-.04,.13-.15,.21-.32h.36Z"/>
    <path class="cls-1" d="M96.05,126.72v5.73c0,1.1,.02,1.78,.07,2.03,.05,.23,.13,.41,.25,.5,.12,.1,.25,.15,.41,.15,.21,0,.45-.06,.72-.18l.14,.37-2.83,1.16h-.46v-1.99c-.41,.45-.76,.8-1.06,1.06-.3,.27-.56,.48-.8,.61-.25,.14-.47,.23-.68,.27-.21,.04-.44,.06-.68,.06-.54,0-1-.15-1.39-.45-.39-.31-.66-.7-.8-1.19-.14-.48-.22-1.16-.22-2.04v-4.22c0-.28-.02-.51-.06-.69-.03-.18-.1-.33-.22-.46-.11-.11-.27-.2-.48-.25-.21-.05-.49-.07-.85-.07v-.39h3.31v6.33c0,.45,.04,.81,.13,1.09,.08,.28,.2,.5,.35,.66,.15,.14,.31,.25,.5,.3,.19,.06,.39,.09,.59,.09,.3,0,.63-.09,1.01-.28,.37-.19,.83-.54,1.34-1.06v-5.36c0-.27-.03-.49-.07-.67-.05-.17-.13-.32-.24-.42-.11-.11-.26-.19-.46-.22-.2-.05-.45-.08-.76-.09v-.39h3.23Z"/>
    <path class="cls-1" d="M101.14,128.45c.34-.35,.62-.62,.81-.82,.2-.2,.33-.32,.39-.36,.32-.26,.65-.46,1.01-.61,.36-.14,.71-.22,1.06-.22,.61,0,1.11,.17,1.54,.52,.42,.34,.71,.85,.84,1.49,.36-.42,.69-.76,.99-1.02,.29-.26,.57-.46,.82-.62,.26-.14,.51-.24,.74-.29,.24-.05,.49-.08,.77-.08,.34,0,.67,.06,.97,.18,.3,.11,.56,.3,.78,.58,.23,.28,.41,.64,.53,1.1,.13,.45,.2,1.01,.2,1.68v4.08c0,.31,.02,.59,.03,.81,.01,.23,.06,.41,.16,.55,.09,.14,.23,.24,.42,.3,.2,.07,.46,.1,.81,.1v.37h-4.67v-.37h.2c.26,0,.48-.03,.66-.07,.17-.04,.31-.13,.41-.26,.11-.12,.17-.3,.21-.53,.05-.23,.07-.53,.07-.9v-4.08c0-.45-.03-.81-.11-1.11-.07-.29-.17-.53-.3-.7-.14-.18-.3-.3-.49-.37-.19-.06-.42-.1-.67-.1-.18,0-.36,.03-.54,.07-.18,.04-.36,.11-.56,.22-.19,.1-.4,.23-.62,.4-.22,.17-.46,.37-.72,.62v5.08c0,.32,0,.59,.02,.79,0,.19,.04,.34,.08,.42,.06,.16,.2,.28,.4,.39,.21,.11,.55,.17,1.03,.17v.37h-4.78v-.37c.36,0,.65-.03,.86-.07,.21-.05,.37-.15,.46-.28,.1-.13,.16-.32,.19-.55,.03-.23,.03-.52,.03-.86v-4.08c0-.43-.03-.81-.11-1.1-.08-.3-.19-.54-.33-.72-.14-.18-.31-.31-.51-.4-.2-.07-.42-.1-.65-.1s-.46,.04-.69,.12c-.24,.08-.47,.19-.68,.31-.22,.13-.42,.28-.6,.44-.19,.16-.33,.3-.45,.45v5.08c0,.31,0,.57,.03,.76,.01,.19,.05,.34,.09,.45,.03,.12,.09,.2,.15,.25,.06,.07,.14,.11,.23,.16,.16,.09,.51,.14,1.02,.14v.37h-4.68v-.37c.32,0,.58-.03,.77-.09,.19-.05,.34-.14,.44-.28,.1-.14,.16-.31,.18-.53,.02-.23,.04-.52,.04-.86v-3.63c0-.61-.02-1.09-.03-1.44-.03-.35-.07-.61-.11-.79-.05-.17-.13-.28-.23-.32-.09-.05-.21-.07-.37-.07-.19,0-.43,.05-.69,.16l-.15-.37,2.85-1.17h.46v2.01Z"/>
  </g>
  <path class="cls-1" d="M96.53,23.09c1.72,4.92,2.71,10.2,2.71,15.71,0,26.32-21.32,47.64-47.64,47.64-22.39,0-41.11-15.45-46.22-36.26-.29,2.24-.5,4.52-.5,6.84,0,28.79,23.33,52.13,52.13,52.13s52.13-23.34,52.13-52.13c0-12.97-4.77-24.81-12.61-33.93Z"/>
  <path class="cls-1" d="M57.96,0c6.57,5.8,10.74,14.27,10.74,23.73,0,17.5-14.18,31.68-31.68,31.68-6.82,0-13.13-2.18-18.29-5.84,5.74,11.41,17.52,19.26,31.17,19.26,19.28,0,34.9-15.63,34.9-34.9,0-16.49-11.45-30.29-26.83-33.93Z"/>
  <path class="cls-1" d="M32.26,11.44c6.87,3.34,9.74,11.63,6.4,18.5-2.76,5.68-8.89,8.56-14.82,7.53,.75,.5,1.48,1.02,2.32,1.43,9.67,4.7,21.33,.67,26.03-9,4.7-9.68,.67-21.33-9-26.04-9.68-4.7-21.34-.67-26.04,9.01-.13,.28-.19,.58-.31,.86,4.07-3.74,10.15-4.85,15.42-2.29Z"/>
</svg>