<?xml version="1.0" encoding="UTF-8"?>
<svg id="Design" xmlns="http://www.w3.org/2000/svg" viewBox="0 0 122.29 128.21">
  <defs>
    <style>
      .cls-1 {
        fill: #019467;
      }

      .cls-2 {
        fill: #0653a0;
      }
    </style>
  </defs>
  <path class="cls-2" d="M85.13,26.68v.3c-.03,2.75-.48,5.41-1.3,7.91s-2,4.82-3.46,6.93c-2.93,4.19-7.05,7.5-11.84,9.48-3.19,1.33-6.7,2.06-10.34,2.06h-15.61v21.29h-10.8v-21.29h-6.88c-.89,0-1.74,.08-2.57,.23-.56,.11-1.1,.24-1.62,.41-1.33,.41-2.56,1.01-3.69,1.77-2.25,1.51-4.04,3.67-5.11,6.2-.35,.83-.62,1.72-.82,2.63-.18,.92-.29,1.86-.29,2.84,.02,1.47,.23,2.87,.63,4.19s1.01,2.56,1.77,3.69c1.53,2.24,3.69,4.04,6.2,5.1,1.68,.71,3.52,1.1,5.49,1.1h12.07c-.11,.15-.23,.3-.33,.45-.12,.17-.23,.33-.35,.5-1.85,2.63-3.33,5.58-4.37,8.73-.12,.38-.23,.76-.35,1.13h-6.67c-2.57,0-5.07-.39-7.41-1.12-2.33-.73-4.52-1.8-6.52-3.15-3.96-2.68-7.11-6.46-9.01-10.93-.62-1.5-1.12-3.06-1.45-4.69-.33-1.62-.5-3.3-.5-5.01,0-2.56,.39-5.05,1.12-7.39s1.8-4.54,3.13-6.52c2.69-3.98,6.47-7.12,10.95-9.01,2.22-.94,4.63-1.57,7.12-1.83,.85-.08,1.69-.14,2.57-.14h6.88v-15.59c0-2.74,.41-5.4,1.16-7.89,.77-2.51,1.89-4.87,3.3-7,2.81-4.28,6.81-7.71,11.57-9.82C50.98,.83,54.47,.05,58.15,0h.3c2.75,0,5.41,.42,7.92,1.19,2.51,.79,4.87,1.92,6.99,3.36,4.26,2.87,7.64,6.94,9.66,11.74,1.34,3.19,2.1,6.71,2.1,10.39Z"/>
  <path class="cls-1" d="M41.17,87.56c.24-.39,.5-.79,.76-1.16,2.93-4.19,7.05-7.5,11.84-9.48,3.19-1.33,6.7-2.06,10.34-2.06h15.61v-21.29h10.8v21.29h6.9c1.47,0,2.86-.23,4.19-.63,1.32-.41,2.56-1.01,3.67-1.77,2.25-1.51,4.04-3.67,5.11-6.2,.71-1.68,1.1-3.52,1.1-5.47,0-1.47-.23-2.87-.63-4.19-.41-1.32-1.01-2.56-1.77-3.69-1.53-2.24-3.69-4.04-6.2-5.1-1.68-.71-3.52-1.1-5.47-1.1h-8.94c1.83-2.71,3.3-5.69,4.34-8.88,.21-.63,.39-1.29,.57-1.94h4.02c2.56,0,5.05,.39,7.39,1.12,2.34,.74,4.52,1.8,6.52,3.15,3.96,2.68,7.11,6.46,9.01,10.93,1.25,2.98,1.95,6.28,1.95,9.69,0,2.57-.39,5.05-1.12,7.39s-1.78,4.54-3.13,6.52c-2.69,3.98-6.47,7.12-10.95,9.01-2.98,1.26-6.26,1.97-9.68,1.97h-6.9v15.59c0,2.74-.41,5.4-1.16,7.89-.77,2.51-1.89,4.87-3.3,7-2.81,4.28-6.81,7.71-11.57,9.82-3.18,1.41-6.68,2.19-10.34,2.24h-.3c-2.75,0-5.41-.42-7.92-1.19-2.51-.79-4.87-1.92-6.99-3.36-4.26-2.87-7.64-6.94-9.66-11.74-1.35-3.19-2.1-6.71-2.1-10.39v-.3c.03-2.75,.48-5.41,1.3-7.91,.12-.33,.23-.67,.36-1"/>
</svg>