<?xml version="1.0" encoding="UTF-8"?>
<svg id="Design" xmlns="http://www.w3.org/2000/svg" xmlns:xlink="http://www.w3.org/1999/xlink" viewBox="0 0 279.41 51.37">
  <defs>
    <style>
      .cls-1 {
        fill: #f1f1f1;
      }

      .cls-2 {
        fill: url(#linear-gradient);
      }
    </style>
    <linearGradient id="linear-gradient" x1="-.72" y1="25.68" x2="51.09" y2="25.68" gradientUnits="userSpaceOnUse">
      <stop offset="0" stop-color="#1dffff"/>
      <stop offset=".46" stop-color="#221fc9"/>
      <stop offset="1" stop-color="#6954f3"/>
    </linearGradient>
  </defs>
  <g>
    <g>
      <path class="cls-1" d="M68.8,38.4l12.45-25.36h2.75l12.35,25.38h-4.05l-2.6-5.44h-11.38l1.68-3.46h8.02l-5.44-10.81-9.63,19.7h-4.16Z"/>
      <path class="cls-1" d="M115.5,20.23l-8.8,18.08h-2.23l-8.89-18.08h3.97l6.08,12.42,6.11-12.42h3.76Z"/>
      <path class="cls-1" d="M119.4,23.85v-3.62h12.71c3.63,0,5.45,1.78,5.47,5.34v12.85h-14.98c-3.35,0-5.02-1.51-5.02-4.54v-2.51c0-3.07,1.55-4.61,4.64-4.63h9.61v3.64h-8c-1.74,0-2.62,.71-2.63,2.13h.02c0,1.51,.81,2.27,2.43,2.27h10.31l-.02-8.05c0-1.92-.81-2.88-2.44-2.88h-12.09Z"/>
      <path class="cls-1" d="M146.74,38.42h-3.64V20.21h14.55c3.65,.02,5.47,1.85,5.47,5.47l.02,12.71h-3.67v-12.18c-.03-1.55-.84-2.34-2.43-2.37h-10.31v14.57Z"/>
      <path class="cls-1" d="M187.36,23.87l-14.05,10.93h14.1v3.62h-20.06v-3.64l14.08-10.91h-14.08v-3.64h20.01v3.64Z"/>
      <path class="cls-1" d="M193.44,23.85v-3.62h12.71c3.63,0,5.45,1.78,5.47,5.34v12.85h-14.98c-3.35,0-5.02-1.51-5.02-4.54v-2.51c0-3.07,1.55-4.61,4.64-4.63h9.61v3.64h-8c-1.74,0-2.62,.71-2.63,2.13h.02c0,1.51,.81,2.27,2.43,2.27h10.31l-.02-8.05c0-1.92-.81-2.88-2.44-2.88h-12.09Z"/>
      <path class="cls-1" d="M236.62,12.99v3.6h-8.94v21.84h-3.6V16.59h-9.11l.02-3.6h21.64Z"/>
      <path class="cls-1" d="M256.2,34.78v3.64h-13.75c-3.6-.03-5.42-1.82-5.46-5.35v-7.38c0-3.63,1.82-5.45,5.46-5.46h9.11c3.6,.02,5.42,1.54,5.46,4.54v5.68h-14.39v-3.71h10.74l.02-1.51c-.01-.91-.62-1.37-1.82-1.37h-8.16c-1.85,0-2.77,.87-2.77,2.6v5.63c0,1.8,.82,2.7,2.46,2.68h13.11Z"/>
      <path class="cls-1" d="M279.41,34.76v3.66h-12.7c-3.63-.02-5.45-1.89-5.46-5.6v-7.26c.02-3.55,1.84-5.32,5.44-5.34h12.71v3.52h-12.13c-1.58,0-2.38,.87-2.39,2.6v5.65c0,1.84,1.05,2.76,3.15,2.77h11.36Z"/>
    </g>
    <path class="cls-1" d="M52.21,20.09L29.49,1.63c-2.18-1.77-5.11-2.13-7.65-.91-2.54,1.21-4.11,3.7-4.11,6.51v12.46c1.84,.63,3.26,2.17,3.73,4.08V7.22c0-1.38,.75-2.55,1.99-3.14,.49-.24,1.01-.35,1.52-.35,.78,0,1.53,.27,2.18,.8l22.72,18.45c.82,.66,1.29,1.65,1.29,2.71s-.47,2.04-1.29,2.7l-22.72,18.46c-1.07,.87-2.45,1.03-3.7,.44s-1.99-1.77-1.99-3.14V26.54c-.47,1.91-1.89,3.45-3.73,4.08v13.53c0,2.81,1.58,5.3,4.11,6.51,1,.47,2.06,.71,3.11,.71,1.62,0,3.21-.55,4.54-1.63l22.72-18.45c1.7-1.38,2.67-3.42,2.67-5.6s-.97-4.23-2.67-5.6Z"/>
  </g>
  <path class="cls-2" d="M8.72,3.07L31.44,21.53c2.63,2.14,2.63,6.16,0,8.3L8.72,48.3c-3.5,2.84-8.72,.35-8.72-4.15V7.22C0,2.72,5.23,.23,8.72,3.07Z"/>
</svg>