<?xml version="1.0" encoding="UTF-8"?>
<svg id="Design" xmlns="http://www.w3.org/2000/svg" viewBox="0 0 240.89 44.28">
  <defs>
    <style>
      .cls-1 {
        fill: #fff;
      }

      .cls-2 {
        fill: #1266e0;
      }
    </style>
  </defs>
  <g>
    <g>
      <path class="cls-1" d="M59.32,33.11l10.74-21.86h2.37l10.65,21.88h-3.49l-2.24-4.69h-9.81l1.45-2.99h6.91l-4.69-9.32-8.3,16.98h-3.58Z"/>
      <path class="cls-1" d="M99.58,17.44l-7.59,15.59h-1.93l-7.66-15.59h3.42l5.24,10.71,5.27-10.71h3.24Z"/>
      <path class="cls-1" d="M102.94,20.56v-3.12h10.96c3.13,0,4.7,1.53,4.72,4.6v11.08h-12.92c-2.89,0-4.33-1.3-4.33-3.91v-2.17c0-2.65,1.33-3.98,4-3.99h8.29v3.14h-6.9c-1.5,0-2.26,.61-2.27,1.84h.01c0,1.3,.7,1.96,2.09,1.96h8.89v-6.94c-.01-1.65-.72-2.48-2.12-2.48h-10.42Z"/>
      <path class="cls-1" d="M126.51,33.12h-3.14v-15.7h12.54c3.15,.02,4.72,1.59,4.72,4.72l.02,10.96h-3.17v-10.5c-.03-1.33-.73-2.02-2.09-2.05h-8.89v12.56Z"/>
      <path class="cls-1" d="M161.53,20.58l-12.11,9.42h12.16v3.12h-17.29v-3.14l12.14-9.41h-12.14v-3.14h17.25v3.14Z"/>
      <path class="cls-1" d="M166.77,20.56v-3.12h10.96c3.13,0,4.7,1.53,4.72,4.6v11.08h-12.92c-2.89,0-4.33-1.3-4.33-3.91v-2.17c0-2.65,1.33-3.98,4-3.99h8.29v3.14h-6.9c-1.5,0-2.26,.61-2.27,1.84h.01c0,1.3,.7,1.96,2.09,1.96h8.89l-.02-6.94c0-1.65-.7-2.48-2.11-2.48h-10.42Z"/>
      <path class="cls-1" d="M204,11.2v3.11h-7.71v18.83h-3.11V14.31h-7.86v-3.11h18.67Z"/>
      <path class="cls-1" d="M220.87,29.99v3.14h-11.86c-3.11-.03-4.67-1.57-4.7-4.61v-6.36c0-3.13,1.57-4.69,4.7-4.7h7.86c3.11,.02,4.67,1.32,4.7,3.91v4.9h-12.41v-3.2h9.26l.02-1.3c-.01-.79-.53-1.18-1.57-1.18h-7.03c-1.59,0-2.39,.75-2.39,2.24v4.85c0,1.55,.71,2.32,2.12,2.31h11.31Z"/>
      <path class="cls-1" d="M240.89,29.97v3.15h-10.95c-3.13-.02-4.69-1.63-4.7-4.82v-6.26c.02-3.06,1.58-4.59,4.69-4.6h10.96v3.03h-10.45c-1.36,0-2.05,.75-2.06,2.24v4.87c0,1.58,.91,2.38,2.72,2.39h9.8Z"/>
    </g>
    <path class="cls-1" d="M45.01,17.32L25.42,1.4c-1.88-1.53-4.41-1.83-6.59-.79-2.19,1.04-3.55,3.19-3.55,5.61v10.75c1.59,.55,2.81,1.87,3.21,3.52V6.23c0-1.19,.64-2.2,1.71-2.71,.42-.2,.87-.31,1.31-.31,.67,0,1.32,.23,1.88,.69l19.59,15.91c.71,.57,1.11,1.43,1.11,2.34s-.4,1.76-1.11,2.33l-19.59,15.92c-.92,.75-2.12,.89-3.19,.38s-1.71-1.53-1.71-2.71v-15.18c-.41,1.65-1.63,2.97-3.21,3.52v11.66c0,2.42,1.36,4.57,3.55,5.61,.86,.41,1.78,.61,2.68,.61,1.4,0,2.77-.48,3.91-1.4l19.59-15.91c1.46-1.19,2.3-2.95,2.3-4.83s-.84-3.64-2.3-4.83Z"/>
  </g>
  <path class="cls-2" d="M7.52,2.65l19.59,15.91c2.27,1.85,2.27,5.31,0,7.16L7.52,41.64c-3.01,2.45-7.52,.3-7.52-3.58V6.23C0,2.35,4.51,.2,7.52,2.65Z"/>
</svg>