<?xml version="1.0" encoding="UTF-8"?>
<svg id="Design" xmlns="http://www.w3.org/2000/svg" viewBox="0 0 115.47 126.79">
  <defs>
    <style>
      .cls-1 {
        fill: #436695;
      }
    </style>
  </defs>
  <g>
    <path class="cls-1" d="M11.72,120.29l-.78,3.67H1.58v-.41c.62-.05,1.06-.22,1.31-.47,.29-.33,.44-.91,.44-1.73v-9.53c0-.85-.15-1.43-.46-1.7-.23-.2-.65-.32-1.29-.36v-.4H6.34v.4c-.69,0-1.14,.1-1.38,.3-.33,.29-.5,.87-.5,1.77v10.41c0,.48,.11,.77,.35,.9,.2,.11,.73,.15,1.55,.15,1.54,0,2.59-.12,3.11-.4,.76-.35,1.38-1.23,1.85-2.59h.39Z"/>
    <path class="cls-1" d="M21.14,118.89c0,1.46-.34,2.65-1.03,3.63-.78,1.07-1.86,1.6-3.22,1.6-1.21,0-2.22-.51-3.03-1.49-.78-1-1.18-2.23-1.18-3.74,0-1.4,.38-2.61,1.12-3.58,.81-1.02,1.81-1.53,3.03-1.53s2.32,.45,3.13,1.37c.79,.93,1.18,2.17,1.18,3.74Zm-1.26,.62c0-1.47-.3-2.7-.89-3.66-.59-.96-1.35-1.43-2.29-1.43-.75,0-1.36,.24-1.84,.76-.56,.61-.86,1.48-.88,2.61-.02,1.45,.2,2.7,.68,3.74,.58,1.28,1.42,1.92,2.53,1.92,.67,0,1.23-.23,1.69-.71,.67-.67,1-1.76,1-3.24Z"/>
    <path class="cls-1" d="M30.75,114.93c0,.46-.2,.7-.57,.7-.24,0-.51-.08-.79-.24-.28-.17-.5-.25-.67-.23-.26,.02-.59,.33-1,.93-.42,.61-.62,1.08-.62,1.45v4.22c0,.75,.18,1.25,.54,1.53,.25,.2,.69,.31,1.29,.33v.35h-4.51v-.35c.61-.1,1.01-.24,1.2-.43,.26-.24,.39-.68,.39-1.28v-5.09c0-1.02-.31-1.53-.97-1.53-.24,0-.44,.02-.58,.07v-.34c.59-.21,1.46-.59,2.63-1.13v2.54l.21-.34c.59-.85,1.03-1.42,1.32-1.7,.38-.36,.77-.55,1.15-.55,.64,.03,.96,.4,.96,1.11Z"/>
    <path class="cls-1" d="M41.3,120.58c-.24,.77-.63,1.48-1.14,2.09-.8,.96-1.77,1.45-2.89,1.45s-2-.44-2.65-1.34c-.66-.85-.98-2.05-.98-3.59,0-1.81,.47-3.21,1.39-4.21,.77-.79,1.62-1.18,2.56-1.19,.89,0,1.63,.28,2.21,.85,.66,.64,1.05,1.63,1.16,2.91h-6.3c0,3.56,1.01,5.34,2.97,5.34,1.47,0,2.6-.8,3.43-2.4l.24,.1Zm-1.74-3.58c-.2-1.69-.99-2.53-2.37-2.54-1.18-.01-2.03,.83-2.51,2.54h4.88Z"/>
    <path class="cls-1" d="M52.63,123.96h-2.67v-.35c.47-.09,.75-.29,.86-.59,.05-.19,.07-.6,.07-1.21v-4.19c0-.84-.06-1.44-.17-1.8-.19-.52-.51-.78-1-.78-.56,0-1.07,.51-1.54,1.55v5.05c0,.81,.08,1.35,.24,1.63,.11,.22,.34,.33,.67,.33v.35h-2.93v-.35c.36-.02,.6-.14,.72-.33,.14-.24,.2-.73,.2-1.45v-4.33c0-1.64-.37-2.45-1.11-2.45-.66,0-1.18,.51-1.59,1.53v5.68c0,.86,.27,1.33,.84,1.35v.35h-2.79v-.35c.41,0,.67-.2,.8-.59,.05-.2,.08-.59,.08-1.15v-5.12c0-1.09-.15-1.65-.44-1.65-.17,0-.29,.02-.37,.05v-.35c.8-.35,1.4-.66,1.81-.91h.01v1.75c.15-.55,.44-1.01,.89-1.35,.38-.32,.79-.48,1.19-.48,.84,0,1.35,.66,1.54,2.02,.21-.54,.5-.99,.86-1.36,.43-.44,.91-.66,1.42-.66,1.2,0,1.78,1.28,1.78,3.86v4.39c0,.54,.02,.88,.06,1.03,.07,.28,.27,.45,.59,.51v.35Z"/>
    <path class="cls-1" d="M70.77,123.96h-5.68v-.41c1.03-.03,1.68-.19,1.93-.43,.24-.27,.36-.83,.36-1.69v-9.51c0-.9-.12-1.46-.36-1.71-.22-.22-.87-.38-1.93-.43v-.4h5.68v.4c-1.03,.04-1.68,.2-1.93,.43-.24,.25-.36,.82-.36,1.71v9.51c0,.85,.13,1.4,.4,1.67,.28,.25,.91,.4,1.89,.45v.41Z"/>
    <path class="cls-1" d="M82.62,118.5c0,1.4-.33,2.64-1.01,3.73-.76,1.23-1.77,1.85-3.01,1.85-.83,0-1.59-.38-2.26-1.11v1.46c0,.75,.13,1.25,.4,1.52,.27,.27,.77,.39,1.49,.39v.46h-4.52v-.44c.61-.03,1.02-.2,1.25-.51,.19-.28,.29-.7,.29-1.25v-7.87c0-.97-.35-1.46-1.05-1.46-.22,0-.36,.01-.42,.02v-.36c.58-.19,1.44-.54,2.58-1.09l-.02,2.02,.19-.3c.76-1.14,1.75-1.71,2.97-1.71,.88,0,1.62,.43,2.22,1.27,.59,.86,.9,1.99,.9,3.39Zm-1.2,.67c0-2.76-.9-4.15-2.71-4.15-.41,0-.87,.19-1.42,.55-.59,.39-.9,.79-.95,1.21v5.03c0,.31,.24,.64,.73,.98,.49,.35,1.01,.53,1.55,.53,1.87,0,2.79-1.38,2.79-4.16Z"/>
    <path class="cls-1" d="M91.23,121.34c0,.86-.31,1.57-.92,2.09-.55,.45-1.16,.69-1.86,.69-.34,0-.76-.08-1.29-.24-.53-.18-.87-.26-1.03-.26-.15,0-.26,.14-.3,.41h-.26v-3.29h.3c.18,.96,.39,1.59,.58,1.88,.38,.66,1.01,1,1.89,1,1.26,0,1.88-.53,1.88-1.63,0-.63-.38-1.22-1.14-1.75l-1.14-.8c-.96-.66-1.52-1.06-1.65-1.18-.5-.51-.76-1.11-.76-1.8s.2-1.29,.62-1.79c.51-.59,1.19-.87,2.05-.87,.33,0,.69,.09,1.06,.27,.36,.14,.58,.23,.65,.23,.14,0,.22-.11,.25-.31h.3l.14,2.84h-.35c-.18-1.07-.45-1.78-.81-2.16-.28-.3-.69-.46-1.26-.46s-1,.19-1.35,.55c-.29,.33-.45,.69-.45,1.08,0,.63,.35,1.17,1.01,1.62l2.14,1.44c.59,.41,1,.73,1.21,.98,.32,.39,.49,.88,.49,1.47Z"/>
    <path class="cls-1" d="M103.32,123.16c-.5,.13-1.29,.43-2.35,.9v-2.26c-.32,.4-.73,.87-1.24,1.43-.69,.56-1.36,.87-2.02,.92-.48,0-.9-.19-1.25-.55-.49-.52-.71-1.28-.71-2.31v-5.35c0-1.05-.49-1.59-1.46-1.65v-.3h2.45v7.22c0,1.22,.56,1.83,1.68,1.83,.52,0,1.15-.38,1.92-1.12,.37-.34,.55-.81,.55-1.38v-4.58c0-.51-.11-.86-.32-1.09-.25-.29-.71-.45-1.35-.5v-.38h2.67v7.37c0,.94,.48,1.41,1.44,1.41v.4Z"/>
    <path class="cls-1" d="M113.89,123.96h-2.68v-.35c.47-.09,.75-.29,.85-.59,.05-.19,.09-.6,.09-1.21v-4.19c0-.84-.07-1.44-.18-1.8-.19-.52-.52-.78-1-.78-.56,0-1.06,.51-1.54,1.55v5.05c0,.81,.08,1.35,.24,1.63,.11,.22,.35,.33,.68,.33v.35h-2.93v-.35c.36-.02,.6-.14,.71-.33,.14-.24,.21-.73,.21-1.45v-4.33c0-1.64-.39-2.45-1.12-2.45-.65,0-1.18,.51-1.59,1.53v5.68c0,.86,.27,1.33,.83,1.35v.35h-2.8v-.35c.41,0,.69-.2,.81-.59,.05-.2,.08-.59,.08-1.15v-5.12c0-1.09-.15-1.65-.44-1.65-.18,0-.3,.02-.38,.05v-.35c.79-.35,1.4-.66,1.81-.91h.01v1.75c.15-.55,.45-1.01,.88-1.35,.39-.32,.78-.48,1.19-.48,.82,0,1.34,.66,1.53,2.02,.22-.54,.5-.99,.86-1.36,.44-.44,.91-.66,1.42-.66,1.19,0,1.79,1.28,1.79,3.86v4.39c0,.54,.03,.88,.06,1.03,.07,.28,.27,.45,.59,.51v.35Z"/>
  </g>
  <path class="cls-1" d="M43.16,64.02c-11.75,8.46-15.03,24.2-8.18,36.5,1.69-2.95,3.97-5.63,6.77-7.88-2.62-7.79,.07-16.65,7.17-21.6,8.64-6,20.55-3.92,26.6,4.69,3.65,5.21,4.31,11.59,2.35,17.16,1.75,1.45,3.36,3.12,4.77,5.03,.69,.96,1.29,1.95,1.85,2.94,5.34-9.33,5.1-21.31-1.66-30.58-9.21-12.62-26.97-15.43-39.67-6.27Z"/>
  <path class="cls-1" d="M79.62,54.06c13.27,5.84,28.58,.75,35.84-11.32-3.42,.03-6.89-.59-10.26-1.85-5.44,6.16-14.51,8.32-22.36,4.69-9.57-4.42-13.74-15.73-9.3-25.24,2.69-5.76,7.9-9.53,13.73-10.64,.38-2.24,1.01-4.47,1.98-6.65,.47-1.06,1.03-2.08,1.62-3.06-10.81,.1-21.08,6.32-25.73,16.79-6.36,14.28,.13,30.96,14.47,37.28Z"/>
  <path class="cls-1" d="M52.65,27.7c-1.58-14.35-13.7-24.97-27.85-25.15,1.74,2.93,2.96,6.23,3.55,9.75,8.1,1.59,14.51,8.31,15.31,16.89,.97,10.45-6.76,19.7-17.25,20.67-6.36,.59-12.26-2.01-16.15-6.46-2.14,.8-4.39,1.36-6.77,1.64-1.17,.12-2.33,.14-3.48,.14,5.52,9.25,16.08,14.94,27.52,13.69,15.61-1.71,26.84-15.67,25.13-31.17Z"/>
</svg>