<?xml version="1.0" encoding="UTF-8"?>
<svg id="Design" xmlns="http://www.w3.org/2000/svg" viewBox="0 0 107.9 115.36">
  <defs>
    <style>
      .cls-1 {
        fill: #589138;
      }
    </style>
  </defs>
  <path class="cls-1" d="M103.54,65.32L71.58,12.41c-.81-1.35-1.67-2.58-2.57-3.7-.91,1.12-1.78,2.35-2.58,3.7l-31.97,52.91c-9.62,15.93-1.74,28.97,17.51,28.97h34.08c19.24,0,27.12-13.04,17.49-28.97Z"/>
  <path class="cls-1" d="M19.54,65.32L51.51,12.41c2.91-4.8,6.36-8.15,10.04-10.06-8.52-4.42-18.24-1.08-24.96,10.06L4.61,65.32c-9.62,15.93-1.74,28.97,17.5,28.97h14.93c-19.24,0-27.12-13.04-17.5-28.97Z"/>
  <path class="cls-1" d="M103.69,65.32l-17.36-28.26-8.83-14.04-4.42-7.01c-1.43-2.39-2.95-4.56-4.63-6.81l1.36,.05c-4.28,6.29-7.96,13.44-11.97,20.11l-11.99,20.25-6.01,10.11c-1.96,3.43-4.21,6.6-5.81,10.05-1.5,3.27-2.39,7.04-1.89,10.54,.39,3.55,2.47,6.69,5.41,8.76,2.93,2.12,6.59,3.3,10.33,3.79,3.72,.47,7.71,.38,11.62,.49l23.53,.44c3.93,.13,7.84,.11,11.61-.82,3.73-.93,7.41-2.72,9.86-5.76,2.44-3.01,3.54-7.04,3.08-10.92-.41-3.89-1.94-7.6-3.9-10.98Zm0,0c2.02,3.35,3.6,7.04,4.08,10.96,.53,3.9-.52,8.03-2.99,11.15-2.46,3.16-6.22,5.01-9.99,6.07-3.82,1.1-7.85,1.26-11.74,1.28l-23.53,.44c-3.92,.03-7.8,.29-11.88-.06-4.01-.38-8.13-1.45-11.64-3.86-3.5-2.36-6.18-6.27-6.71-10.57-.64-4.29,.3-8.48,2-12.32,1.69-3.68,3.85-7.04,5.86-10.36l6.15-10.02,12.35-20.02c4.32-6.61,8.06-13.34,12.85-19.85l.69-.93,.67,.98c1.54,2.24,3.1,4.65,4.43,7.07l4.15,7.18,8.31,14.34,16.94,28.51Z"/>
  <path class="cls-1" d="M19.54,65.32l19.51-32.72,9.75-16.36c1.62-2.73,3.22-5.52,5.21-8,1.05-1.23,2.09-2.48,3.37-3.48,1.15-1.15,2.6-1.91,3.95-2.8v.8c-2.79-1.19-5.8-2.11-8.85-1.63-2.99,.4-5.9,1.57-8.28,3.51-1.27,.87-2.36,1.94-3.36,3.11-1.12,1.06-1.93,2.39-2.81,3.65-1.75,2.53-3.25,5.34-4.89,8-6.41,10.78-12.83,21.56-19.43,32.23l-4.91,8.02c-1.61,2.72-3.35,5.26-4.81,8.05-1.39,2.74-2.54,5.61-2.84,8.67-.33,3.02,.13,6.15,1.61,8.8,3,5.45,9.45,7.89,15.49,8.54,6.18,.45,12.52,.19,18.77,.31v.53c-3.68-.07-7.38-.54-10.84-1.83-1.72-.62-3.41-1.46-4.86-2.6-.78-.5-1.43-1.16-2.07-1.83-.71-.61-1.15-1.45-1.71-2.17-.97-1.57-1.65-3.31-1.94-5.13-.29-1.81-.32-3.68,0-5.48,.24-1.82,.79-3.59,1.47-5.28,.65-1.72,1.56-3.31,2.45-4.9Zm0,0c-.87,1.61-1.76,3.21-2.39,4.93-.66,1.69-1.18,3.46-1.41,5.27-.29,1.8-.24,3.64,.07,5.43,.32,1.79,1,3.5,1.97,5.03,.56,.71,1,1.52,1.7,2.11,.64,.64,1.28,1.28,2.05,1.77,1.43,1.1,3.1,1.9,4.81,2.49,3.42,1.22,7.07,1.65,10.7,1.68v.53c-6.29-.05-12.51,.28-18.85-.1-3.15-.3-6.29-1.06-9.18-2.44-2.87-1.37-5.48-3.53-7.08-6.37-1.63-2.83-2.16-6.18-1.85-9.38,.28-3.22,1.47-6.29,2.87-9.13,1.41-2.79,3.18-5.47,4.73-8.16l4.82-8.08c6.38-10.81,12.93-21.5,19.49-32.19,1.69-2.66,3.17-5.38,5.02-7.99,.92-1.3,1.79-2.65,2.96-3.76,1.06-1.21,2.21-2.31,3.56-3.22,2.51-2,5.65-3.23,8.84-3.61,3.26-.47,6.46,.54,9.37,1.84l.73,.33-.73,.48c-1.3,.85-2.7,1.55-3.83,2.65-1.25,.95-2.25,2.14-3.28,3.31-1.05,1.16-1.85,2.57-2.78,3.84l-2.48,4.04-9.95,16.25-19.89,32.49Z"/>
  <g>
    <path class="cls-1" d="M13.68,115.18h-1.29v-10.07h1.29v10.07Z"/>
    <path class="cls-1" d="M18.57,107.71c.53,0,1,.09,1.43,.26,.43,.17,.78,.42,1.08,.75,.3,.33,.53,.73,.69,1.21,.16,.47,.24,1.01,.24,1.61s-.08,1.14-.25,1.62c-.16,.47-.4,.87-.7,1.2-.29,.33-.66,.58-1.08,.75-.42,.17-.89,.25-1.42,.25s-.98-.08-1.39-.25c-.43-.17-.79-.42-1.09-.75-.3-.31-.54-.72-.7-1.19-.17-.47-.26-1.02-.26-1.63s.08-1.14,.24-1.61c.17-.47,.4-.88,.71-1.2,.29-.32,.65-.58,1.08-.75,.43-.17,.89-.26,1.41-.26Zm0,6.62c.31,0,.59-.06,.85-.18,.25-.12,.47-.29,.66-.53,.19-.23,.33-.53,.43-.88,.11-.35,.15-.76,.15-1.22s-.04-.87-.15-1.22c-.1-.35-.24-.65-.43-.88-.18-.23-.4-.41-.66-.52-.26-.12-.54-.18-.85-.18s-.59,.06-.85,.18c-.26,.12-.47,.29-.66,.52-.18,.23-.33,.53-.43,.88-.1,.35-.16,.76-.16,1.22s.06,.87,.16,1.22c.09,.35,.24,.65,.43,.88,.18,.23,.39,.41,.66,.53,.26,.12,.55,.18,.85,.18Z"/>
    <path class="cls-1" d="M27.27,109.08c-.18-.06-.45-.09-.79-.09s-.64,.08-.92,.25c-.29,.17-.55,.43-.8,.78v5.16h-1.3v-7.29h1.3v1.01c.55-.79,1.2-1.19,1.92-1.19,.17,0,.37,.02,.59,.06v1.3Z"/>
    <path class="cls-1" d="M31.28,115.36c-.53,0-1.01-.08-1.45-.25-.44-.17-.81-.42-1.13-.75-.32-.33-.57-.73-.74-1.2-.18-.47-.26-1.01-.26-1.62s.08-1.13,.26-1.6c.16-.46,.41-.87,.71-1.2,.3-.33,.65-.58,1.09-.76,.42-.18,.88-.26,1.38-.26,.53,0,1.01,.09,1.43,.26,.43,.17,.79,.42,1.08,.75,.3,.33,.54,.73,.69,1.21,.16,.47,.24,1.01,.24,1.61v.31h-5.52c.03,.42,.1,.79,.22,1.1,.12,.31,.3,.56,.48,.78,.2,.2,.43,.36,.67,.46,.26,.1,.54,.15,.84,.15,.21,0,.43-.03,.64-.09,.22-.05,.41-.14,.59-.25,.17-.11,.31-.25,.42-.42,.1-.17,.16-.35,.17-.57h1.36c-.06,.37-.17,.71-.35,1-.18,.29-.42,.54-.7,.74-.28,.2-.6,.35-.96,.45-.36,.1-.75,.15-1.17,.15Zm1.92-4.53c-.1-.69-.34-1.21-.71-1.56-.37-.35-.82-.53-1.36-.53-.26,0-.5,.04-.72,.13-.23,.09-.44,.22-.62,.39-.18,.17-.33,.39-.45,.65-.12,.26-.21,.56-.26,.92h4.12Z"/>
    <path class="cls-1" d="M45.96,115.18h-1.33v-4.71c0-.3-.02-.56-.06-.77-.04-.22-.11-.39-.2-.52-.08-.14-.2-.23-.34-.29-.14-.06-.32-.09-.52-.09-.64,0-1.26,.39-1.88,1.16v5.22h-1.28v-4.71c0-.3-.03-.56-.08-.77-.03-.22-.1-.39-.2-.52-.09-.14-.2-.23-.34-.29-.14-.06-.32-.09-.52-.09-.63,0-1.26,.39-1.86,1.16v5.22h-1.3v-7.29h1.3v.93c.63-.74,1.31-1.11,2.06-1.11,1.06,0,1.74,.44,2.05,1.33,.25-.29,.47-.52,.68-.69,.2-.18,.39-.31,.57-.41,.17-.09,.33-.15,.49-.18,.16-.03,.33-.04,.5-.04,1.51,0,2.27,.9,2.27,2.7v4.77Z"/>
    <path class="cls-1" d="M54.42,115.18h-1.34v-10.07h1.34v10.07Z"/>
    <path class="cls-1" d="M56.84,105.12h3.79c.52,0,.99,.04,1.47,.13,.48,.08,.89,.23,1.24,.46,.36,.22,.65,.52,.86,.9,.22,.38,.33,.86,.33,1.45,0,1.02-.33,1.79-.97,2.31-.65,.53-1.59,.79-2.83,.79h-2.54v4.03h-1.34v-10.07Zm1.34,4.84h2.58c.43,0,.79-.04,1.09-.13,.3-.08,.55-.2,.74-.35,.2-.16,.33-.36,.42-.59,.09-.23,.13-.5,.13-.81,0-.37-.06-.67-.19-.9-.13-.23-.31-.41-.53-.54-.23-.13-.48-.21-.78-.26-.29-.04-.6-.07-.93-.07h-2.53v3.65Z"/>
    <path class="cls-1" d="M70.1,115.36c-.72,0-1.34-.08-1.87-.25-.54-.17-.99-.41-1.34-.7-.36-.31-.62-.66-.81-1.08-.19-.41-.28-.87-.3-1.38h1.28c.04,.38,.15,.71,.31,.99,.17,.28,.39,.52,.64,.69,.27,.19,.58,.32,.91,.41,.34,.08,.71,.13,1.1,.13s.72-.04,1.02-.12c.31-.08,.57-.2,.79-.35,.22-.15,.39-.33,.52-.54,.12-.21,.18-.45,.18-.71,0-.27-.06-.51-.16-.71-.12-.19-.29-.36-.54-.5-.26-.14-.58-.27-.98-.38-.4-.12-.9-.24-1.48-.36-.56-.13-1.06-.27-1.47-.44-.41-.17-.75-.36-1.01-.58-.27-.22-.46-.48-.59-.76-.12-.28-.19-.61-.19-.99,0-.4,.09-.77,.25-1.12,.18-.35,.42-.64,.74-.89,.32-.24,.7-.44,1.14-.58,.44-.14,.93-.21,1.47-.21,.57,0,1.09,.06,1.55,.2,.48,.14,.87,.34,1.21,.6,.35,.26,.61,.58,.8,.95,.19,.38,.29,.8,.31,1.27h-1.29c-.14-1.21-.98-1.83-2.52-1.83-.75,0-1.33,.14-1.74,.42-.39,.28-.6,.65-.6,1.12,0,.21,.04,.39,.11,.54,.08,.15,.21,.28,.38,.4,.18,.12,.43,.22,.72,.31,.3,.09,.66,.19,1.12,.28,.3,.06,.61,.13,.93,.2,.32,.07,.63,.16,.92,.26,.32,.11,.6,.24,.86,.39,.26,.14,.51,.32,.7,.53,.21,.21,.37,.46,.48,.74,.12,.28,.18,.62,.18,1,0,.44-.09,.85-.28,1.22-.19,.37-.45,.69-.78,.96-.34,.26-.73,.48-1.2,.62-.45,.15-.96,.22-1.5,.22Z"/>
    <path class="cls-1" d="M79.7,115.36c-.62,0-1.16-.06-1.6-.18-.44-.13-.81-.29-1.11-.51-.29-.22-.53-.47-.7-.76-.17-.29-.29-.6-.38-.92-.09-.33-.14-.67-.16-1.02-.02-.35-.04-.69-.04-1.03v-5.81h1.35v5.79c0,.68,.06,1.23,.18,1.65,.12,.42,.28,.75,.51,.99,.23,.23,.5,.4,.82,.48,.33,.08,.7,.13,1.13,.13s.8-.04,1.13-.13c.33-.09,.6-.25,.82-.49,.22-.24,.39-.57,.5-.99,.11-.42,.17-.97,.17-1.64v-5.79h1.34v5.81c0,.7-.06,1.32-.18,1.87-.12,.55-.32,1.01-.62,1.39-.3,.38-.71,.67-1.23,.87-.51,.2-1.16,.3-1.94,.3Z"/>
    <path class="cls-1" d="M95.46,115.18h-1.28v-8.56l-2.89,8.56h-1.2l-2.88-8.56v8.56h-1.27v-10.07h2.02l2.73,8.39,2.76-8.39h2.02v10.07Z"/>
  </g>
</svg>