<?xml version="1.0" encoding="utf-8"?>
<!-- Generator: Adobe Illustrator 27.0.1, SVG Export Plug-In . SVG Version: 6.00 Build 0)  -->
<svg version="1.1" id="Design" xmlns="http://www.w3.org/2000/svg" xmlns:xlink="http://www.w3.org/1999/xlink" x="0px" y="0px"
	 viewBox="0 0 122.3 171" style="enable-background:new 0 0 122.3 171;" xml:space="preserve">
<style type="text/css">
	.st0{fill:#0653A0;}
	.st1{fill:#019467;}
</style>
<path class="st0" d="M85.1,26.7V27c0,2.8-0.5,5.4-1.3,7.9s-2,4.8-3.5,6.9c-2.9,4.2-7.1,7.5-11.8,9.5c-3.2,1.3-6.7,2.1-10.3,2.1H42.6
	v21.3H31.8V53.4h-6.9c-0.9,0-1.7,0.1-2.6,0.2c-0.6,0.1-1.1,0.2-1.6,0.4c-1.3,0.4-2.6,1-3.7,1.8c-2.2,1.5-4,3.7-5.1,6.2
	c-0.4,0.8-0.6,1.7-0.8,2.6c-0.2,0.9-0.3,1.9-0.3,2.8c0,1.5,0.2,2.9,0.6,4.2s1,2.6,1.8,3.7c1.5,2.2,3.7,4,6.2,5.1
	c1.7,0.7,3.5,1.1,5.5,1.1H37c-0.1,0.2-0.2,0.3-0.3,0.4c-0.1,0.2-0.2,0.3-0.3,0.5c-1.8,2.6-3.3,5.6-4.4,8.7c-0.1,0.4-0.2,0.8-0.4,1.1
	h-6.7c-2.6,0-5.1-0.4-7.4-1.1c-2.3-0.7-4.5-1.8-6.5-3.2c-4-2.7-7.1-6.5-9-10.9c-0.6-1.5-1.1-3.1-1.5-4.7c-0.3-1.6-0.5-3.3-0.5-5
	c0-2.6,0.4-5,1.1-7.4s1.8-4.5,3.1-6.5c2.7-4,6.5-7.1,10.9-9c2.2-0.9,4.6-1.6,7.1-1.8c0.9-0.1,1.7-0.1,2.6-0.1h6.9V26.9
	c0-2.7,0.4-5.4,1.2-7.9c0.8-2.5,1.9-4.9,3.3-7C39,7.8,43,4.3,47.8,2.2C51,0.8,54.5,0.1,58.2,0h0.3c2.8,0,5.4,0.4,7.9,1.2
	c2.5,0.8,4.9,1.9,7,3.4c4.3,2.9,7.6,6.9,9.7,11.7C84.4,19.5,85.1,23,85.1,26.7L85.1,26.7z"/>
<path class="st1" d="M41.2,87.6c0.2-0.4,0.5-0.8,0.8-1.2c2.9-4.2,7-7.5,11.8-9.5c3.2-1.3,6.7-2.1,10.3-2.1h15.6V53.6h10.8v21.3h6.9
	c1.5,0,2.9-0.2,4.2-0.6c1.3-0.4,2.6-1,3.7-1.8c2.2-1.5,4-3.7,5.1-6.2c0.7-1.7,1.1-3.5,1.1-5.5c0-1.5-0.2-2.9-0.6-4.2
	c-0.4-1.3-1-2.6-1.8-3.7c-1.5-2.2-3.7-4-6.2-5.1c-1.7-0.7-3.5-1.1-5.5-1.1h-8.9c1.8-2.7,3.3-5.7,4.3-8.9c0.2-0.6,0.4-1.3,0.6-1.9h4
	c2.6,0,5.1,0.4,7.4,1.1c2.3,0.7,4.5,1.8,6.5,3.2c4,2.7,7.1,6.5,9,10.9c1.2,3,1.9,6.3,1.9,9.7c0,2.6-0.4,5.1-1.1,7.4
	s-1.8,4.5-3.1,6.5c-2.7,4-6.5,7.1-10.9,9c-3,1.3-6.3,2-9.7,2h-6.9v15.6c0,2.7-0.4,5.4-1.2,7.9c-0.8,2.5-1.9,4.9-3.3,7
	c-2.8,4.3-6.8,7.7-11.6,9.8c-3.2,1.4-6.7,2.2-10.3,2.2h-0.3c-2.8,0-5.4-0.4-7.9-1.2c-2.5-0.8-4.9-1.9-7-3.4
	c-4.3-2.9-7.6-6.9-9.7-11.7c-1.3-3.2-2.1-6.7-2.1-10.4v-0.3c0-2.8,0.5-5.4,1.3-7.9c0.1-0.3,0.2-0.7,0.4-1"/>
<g>
	<path class="st0" d="M32.6,152.7c0,2.1-0.4,4.1-1.1,5.9c-0.7,1.8-1.7,3.5-3,4.9c-1.3,1.4-2.8,2.5-4.6,3.3c-1.8,0.8-3.7,1.2-5.8,1.2
		c-2.1,0-4-0.4-5.8-1.2c-1.8-0.8-3.3-1.9-4.6-3.3c-1.3-1.4-2.3-3-3-4.9c-0.7-1.8-1.1-3.8-1.1-5.9s0.4-4.1,1.1-5.9
		c0.7-1.8,1.7-3.5,3-4.9s2.8-2.5,4.6-3.3c1.8-0.8,3.7-1.2,5.8-1.2c2.1,0,4,0.4,5.8,1.2c1.8,0.8,3.3,1.9,4.6,3.3c1.3,1.4,2.3,3,3,4.9
		C32.3,148.6,32.6,150.5,32.6,152.7z M27.1,152.7c0-1.9-0.4-3.6-1.1-5.2c-0.8-1.5-1.8-2.8-3.1-3.7c-1.3-0.9-2.9-1.4-4.6-1.4
		c-1.8,0-3.3,0.5-4.6,1.4c-1.3,0.9-2.4,2.1-3.1,3.6c-0.8,1.5-1.1,3.3-1.1,5.2c0,1.9,0.4,3.6,1.1,5.2c0.7,1.5,1.8,2.8,3.1,3.7
		c1.3,0.9,2.9,1.4,4.6,1.4c1.8,0,3.3-0.5,4.6-1.4c1.3-0.9,2.4-2.1,3.1-3.7C26.7,156.3,27.1,154.6,27.1,152.7z"/>
	<path class="st0" d="M37.2,167.7c-0.6,0-1.2-0.2-1.6-0.7c-0.5-0.5-0.7-1-0.7-1.5c0-0.6,0.2-1.2,0.6-1.7l8.6-11.7l2.8,4.1l-7.6,10.4
		C38.8,167.3,38.1,167.7,37.2,167.7z M37.6,137.7c0.8,0,1.5,0.4,2.1,1.1l18.7,24.8c0.3,0.5,0.5,1,0.5,1.6c0,0.8-0.3,1.4-0.8,1.9
		c-0.6,0.5-1.1,0.7-1.7,0.7c-0.8,0-1.5-0.4-2.1-1.1l-18.7-24.8c-0.4-0.5-0.6-1-0.6-1.5c0-0.7,0.3-1.4,0.8-1.8S37,137.7,37.6,137.7z
		 M56.5,137.8c0.7,0,1.2,0.3,1.7,0.8c0.5,0.5,0.7,1,0.7,1.6c0,0.5-0.2,1-0.6,1.5l-8.5,11.2l-2.9-3.9l7.5-10
		C55,138.2,55.7,137.8,56.5,137.8z"/>
	<path class="st0" d="M90.2,152.7c0,2.1-0.4,4.1-1.1,5.9s-1.7,3.5-3,4.9c-1.3,1.4-2.8,2.5-4.6,3.3c-1.8,0.8-3.7,1.2-5.8,1.2
		s-4-0.4-5.8-1.2s-3.3-1.9-4.6-3.3c-1.3-1.4-2.3-3-3-4.9c-0.7-1.8-1.1-3.8-1.1-5.9s0.4-4.1,1.1-5.9c0.7-1.8,1.7-3.5,3-4.9
		s2.8-2.5,4.6-3.3s3.7-1.2,5.8-1.2s4,0.4,5.8,1.2c1.8,0.8,3.3,1.9,4.6,3.3s2.3,3,3,4.9C89.8,148.6,90.2,150.5,90.2,152.7z
		 M84.7,152.7c0-1.9-0.4-3.6-1.1-5.2s-1.8-2.8-3.1-3.7s-2.9-1.4-4.6-1.4s-3.3,0.5-4.6,1.4s-2.4,2.1-3.1,3.6
		c-0.8,1.5-1.1,3.3-1.1,5.2c0,1.9,0.4,3.6,1.1,5.2c0.7,1.5,1.8,2.8,3.1,3.7s2.9,1.4,4.6,1.4s3.3-0.5,4.6-1.4s2.4-2.1,3.1-3.7
		S84.7,154.6,84.7,152.7z"/>
	<path class="st0" d="M105.7,144.5L96.6,166c-0.2,0.5-0.5,1-0.9,1.3s-0.9,0.4-1.3,0.4c-0.8,0-1.3-0.2-1.7-0.6
		c-0.4-0.4-0.6-0.9-0.6-1.6c0-0.3,0-0.5,0.1-0.8l10.6-25.4c0.2-0.6,0.6-1,1-1.3s1-0.4,1.5-0.4c0.5,0,1,0.1,1.4,0.4
		c0.4,0.3,0.8,0.7,1,1.3l10.4,24.9c0.1,0.4,0.2,0.7,0.2,1c0,0.8-0.2,1.4-0.7,1.8c-0.5,0.5-1,0.7-1.6,0.7c-0.5,0-1-0.2-1.4-0.5
		c-0.4-0.3-0.7-0.7-1-1.3l-9.1-21.3L105.7,144.5z M97.9,160.9l2.3-4.9h11.5l0.8,4.9H97.9z"/>
</g>
</svg>
